<?xml version="1.0" encoding="utf-8"?>
<!-- Generator: Adobe Illustrator 20.1.0, SVG Export Plug-In . SVG Version: 6.00 Build 0)  -->
<svg version="1.1" xmlns="http://www.w3.org/2000/svg" xmlns:xlink="http://www.w3.org/1999/xlink" x="0px" y="0px" width="2800px"
	 height="2800px" viewBox="0 0 2800 2800" style="enable-background:new 0 0 2800 2800;" xml:space="preserve">
<style type="text/css">
	.st0{fill:#2D3E4C;}
	.st1{clip-path:url(#SVGID_2_);}
	.st2{fill:#ADADAD;}
	.st3{fill:#C8C9C7;}
	.st4{fill:#F6F5F4;}
	.st5{fill:#DDE1DF;}
	.st6{fill:#DFE3E0;}
	.st7{fill:#979996;}
	.st8{fill:#4273B6;}
	.st9{clip-path:url(#SVGID_2_);fill:#ABD0EF;}
	.st10{fill:#ABD0EF;}
</style>
<g id="Capa_2">
	<g>
		<g>
			<g>
				
					<rect x="-23.5" y="-23.5" transform="matrix(-1.836970e-16 1 -1 -1.836970e-16 2800 -2.273737e-13)" class="st0" width="2846.9" height="2846.9"/>
			</g>
		</g>
	</g>
</g>
<g id="Capa_4">
	<g>
		<defs>
			
				<rect id="SVGID_1_" x="-23.5" y="-23.5" transform="matrix(-1.836970e-16 1 -1 -1.836970e-16 2800 -2.273737e-13)" width="2846.9" height="2846.9"/>
		</defs>
		<clipPath id="SVGID_2_">
			<use xlink:href="#SVGID_1_"  style="overflow:visible;"/>
		</clipPath>
		<g class="st1">
			<path class="st2" d="M2296.5,2582c-1.3-11.9-3-24-5.7-35.7c-2.2-9.8-6.5-19.9-15.2-25.6c-9.8-6.4-20.5-5.4-31.5-3.9
				c-13.2,1.8-26.4,3.6-39.5,5.5c-24.4,3.6-48.7,7.5-73,11.7c-9.1,1.6-14.1,12.7-11.9,20.9c3.9,14.7,7.9,29.4,11.8,44.1
				c0.9,3.4,2.5,6,4.6,7.9c6.8,46.6-10.7,96.4-28.8,138.4c-20.2,46.9-47.4,91.1-80.5,130.1c-34.5,40.6-74.7,74.1-119,103.4
				c-46.4,30.6-89.3,63.8-124.7,107c-38.1,46.5-67.2,99.4-85.4,156.7c-3.1,9.7,5.5,22.8,16.4,21.6c43.9-4.9,87.7-9.7,131.6-14.6
				c21.4-2.4,42.8-4.7,64.2-7.1c10.7-1.2,21.4-2.4,32.1-3.6c11.5-1.3,24.2-1.3,35.5-4.1c9.5-2.4,16.2-9.2,18.2-18.7
				c2-9.6-1.5-20.4-1.6-30.2c-0.2-17.9,3.6-35.4,9.9-52.1c13.3-35.7,38.6-65.5,64.8-92.5c26.9-27.8,55-54.2,80.7-83.2
				c25.5-28.8,49.4-59.2,70.2-91.5c42.7-66.2,72-141.3,78-220.2C2299.2,2625,2298.9,2603.4,2296.5,2582z"/>
			<path class="st3" d="M2222,3178.7c-0.9-12.9-2.7-25.7-5.3-38.4c-10.3-50.9-33.9-98.5-61.3-142.2c-53-84.8-126.2-159.1-163-253.3
				c-19.2-49.1-32.4-110.7-6.5-159.8c9.3-17.5-13.9-33.3-26-21.8c-1.6-0.5-3.4-0.8-5.3-0.8c-8.3,0-18.2,7.8-17,17
				c6.5,49.7-25,94.4-42.9,138.5c-17.3,42.7-27.9,88-31.7,133.9c-3.8,45.6-0.1,92.3,12.3,136.5c12.8,45.2,35.2,85,64.3,121.6
				c30.1,37.9,66.8,73.8,81.3,121.3c5.5,17.9,34,15.2,33.4-4.5c-0.1-4.9-0.3-9.9-0.4-14.8c-0.2-7.6-4.5-12.6-9.9-14.9
				c-15.4-33-39-61.3-62.4-89.3c-28.1-33.7-53.2-68.5-67.7-110.3c-29.3-84.4-21.4-178.1,9.9-260.8c5.2-13.8,11.7-27.6,18.3-41.4
				c9.4,47.9,31.6,95,55.1,134.1c47.4,78.7,111,146.7,153.4,228.6c11.6,22.5,21.4,45.8,28.2,70.1c3.4,12.2,6.3,24.8,7.9,37.4
				c0.7,5.7,1.2,11.5,1.5,17.3c0.2,2.7,0.3,5.4,0.3,8.1c-3.6,3.3-6,8.2-5.8,14.4c0.3,17.3,21.3,24.5,33.1,12.5
				C2225.4,3208,2222.9,3191.2,2222,3178.7z"/>
			<path class="st4" d="M2182.8,3225.9c-8.8-53-29.4-104.4-59.9-148.7c-31-45-72-80.8-112.3-117.2c-38.1-34.4-73.8-70.3-100.5-114.4
				c-25.4-42-43-88.1-52.6-136.2c-10.6-53.1-10.7-108.4,0.3-161.4c1.9-9-2.6-18.4-11.9-20.9c-8.4-2.3-19.1,2.8-20.9,11.9
				c-20.8,100.3-5.7,205.9,40.8,297c23.8,46.5,56.2,87.3,93.8,123.3c39.6,37.9,83.3,71.8,118.2,114.3c38,46.2,62.3,102.6,72.1,161.4
				c1.5,9.1,12.7,14.1,20.9,11.9C2180.5,3244.2,2184.3,3235,2182.8,3225.9z"/>
			<path class="st2" d="M2158.3,2465.3c-7.1-27.3-20.2-52.9-35.1-76.7c-7.5-12.1-15.6-23.8-23.8-35.4c-7.8-11.2-15.6-23.6-28.3-29.8
				c-14.4-7.1-29.9-4.5-44.9-0.9c-11.5,2.7-23.2,4.9-35,6.3c-56.5,6.8-118.2,4.8-166.8,39.2c-7.5,5.3-11,14.9-6.1,23.3
				c0.7,1.2,1.6,2.3,2.6,3.3c1.3,11,3,22,5,32.9c2.6,14.3,7.6,28.1,21,35.7c12.4,6.9,27.9,8,41.6,10.6c15.8,3,31.5,6,47.3,9
				c31,5.9,62,11.7,92.9,17.6c30.5,5.8,61.3,13.6,92.2,17.1c12.6,1.4,25.9-1.1,34.2-11.4C2164.6,2494,2161.8,2478.9,2158.3,2465.3z"
				/>
			<path class="st3" d="M2276.4,2350.8c-4.5-19.6-4.8-36.5-17.8-51.2c-1.9-6.9-13.6-14.3-17.3-20.4c-10.6-17.6-29.1-27-48.9-30
				c-17.5-2.6-35.6-3.8-49.3,6.5c-41.1,12.6-78.6,40.2-96.2,80c-22.6,50.7-12.4,111.3,32.8,145.8c41.1,31.4,99.6,32.3,142.9,4.5
				C2267.3,2457.4,2288.1,2402.3,2276.4,2350.8z"/>
			<path class="st5" d="M2321,2486.4c-2.6-16.5-12.2-32-26.9-40.4c-19.2-11-41.7-8.3-62-2.2c-20.5,6.2-40.1,13.3-61.3,16.5
				c-20,3.1-40.6,3.4-60.8,2.5c-95.5-4.1-188.3-37.8-284.6-30c-7.9,0.6-14.7,5.5-16.5,13.1c-15.3,10.7-25.2,29.1-20.2,48.9
				c5,19.7,22.3,32.5,39.6,41.1c19.5,9.7,39.8,18.1,60.3,25.5c82.3,30,171.4,42.7,258.8,36.8c41-2.7,85.6-6.8,123.2-24.4
				C2304.6,2557.7,2327.2,2524.7,2321,2486.4z"/>
			<path class="st3" d="M1141.1,1864.8c-6.2-18.4-20.8-31.4-34.5-44.3c-15.7-14.8-31.3-29.6-47-44.4c-30.9-29.2-61.8-58.5-92.8-87.7
				l-52.8-50c-16.7-15.8-33-32.5-50.4-47.5c-15.5-13.3-37.1-24.3-56.6-12.2c-3.6,2.2-6.7,5.1-9.3,8.3c-4.6,2-8.4,5.7-9.2,10.8
				c-5.5,37.9-10,76.1-3.7,114.2c6.5,38.7,27.8,69.8,54.5,97.5c55,57.2,115.9,109.1,179.8,156c14.8,10.9,31.3,21.3,50.5,20.1
				c16-1.1,30.4-9.4,40.7-21.6c10.6-12.5,17.6-26.9,23.6-42C1140.9,1904,1147.5,1883.9,1141.1,1864.8z"/>
			<path class="st2" d="M978.4,1324.6c-14.5-34.6-34.7-78.9-74.6-89.5c-23.2-6.2-48.6,2.2-51.1,28.8c-0.9,10.2,1.5,20.8,2.8,30.9
				c1.7,13.1,3.5,26.2,5.3,39.3c6.7,47.9,14.4,95.6,22.9,143.2c-5.3,6-6.7,15.1,1,22.1c18.4,16.7,35.6,34.8,51,54.4
				c13.4,17,25.4,43.9,50.7,43.2c7.1-0.2,14.9-5.1,16.4-12.5C1020.9,1497.8,1012.7,1406.4,978.4,1324.6z"/>
			<path class="st2" d="M1158.4,1444.7c-0.3-15.6-2.4-32.9-11.6-46c-11.5-16.4-34.8-26.7-52.4-12.8c-7,5.5-10.6,13-13.8,21.2
				c-4.1,10.6-7.7,21.4-11.5,32.1c-7.3,20.6-14.6,41.3-21.8,62c-16.3,46.9-32,94-47.4,141.2c-3.2,9.9,2.5,17.2,10.2,19.8
				c1.2,0.8,2.5,1.4,3.9,2c32.3,12.9,63.1,29.5,91.9,49c8.7,5.9,22.9,0.2,25-10.2c8.7-42.9,15.4-86.2,20-129.7
				C1155.5,1530.8,1159.2,1487.5,1158.4,1444.7z"/>
			<path class="st3" d="M923.4,1546.8c-9-92.9-18.3-187.4-49.2-276.1c-15-43-34.6-86.3-62.4-122.7c-15.2-19.9-34.5-35.7-60.1-38.4
				c-21.8-2.3-42.7,8.8-53.7,27.5c-11,18.5-12.5,41.7-11.5,62.7c1.4,29.5,4.7,59,7,88.5c0.1,1.3,0.3,2.6,0.7,3.9
				c-1.3,5-0.3,10.6,4.4,15.3c73.6,75,138.4,158.1,193.1,247.8C899.9,1568.8,925.1,1564.4,923.4,1546.8z"/>
			<path class="st5" d="M2160,2052c-12.5-43-26-85.7-39.5-128.4c-27.1-85.7-54.2-171.6-73.1-259.5c-9.3-43.5-16.6-87.4-20.6-131.8
				c-3.8-42.1-3.3-87.3-31.7-121.5c-24.7-29.8-66.9-39.5-99.4-16c-36.1,26.2-43.3,70-44,111.8c-0.8,45.7-2.9,91-8.7,136.4
				c-5.8,45.4-14.2,90.5-23.3,135.3c-3.7,18.3-7.5,36.6-11.4,54.9c-58.2-2.5-116.4-5.9-174.5-10.2c-58.7-4.4-117.9-8.4-176.2-16.9
				c-28.2-4.1-56.3-9.5-83.8-17.3c-13.4-3.8-26.7-8.2-39.7-13.3c-12.5-4.9-24.8-12.9-37.8-16.2c-15.5-3.9-29.8,2.3-37.2,16.5
				c-6.8,13.1-11.9,27.5-17.7,41.1c-12.3,28.5-25.9,56.7-36.8,85.7c-7.2,19.1,3.2,32.6,15,46.6c11.4,13.4,22.7,26.8,34.1,40.2
				l53.5,63.1c9.1,31.2,37.6,48.4,66.5,62.4c30.9,15,59.8,32.7,87.3,53.3c55.4,41.7,103.9,91.6,157.7,135.2
				c56.2,45.4,118.6,84.2,190.9,96.6c44.3,7.6,89.3,7,133.8,1.5c41.2-5.1,83.7-11.7,122.5-27.2c37.2-14.8,69.5-37.9,90.4-72.6
				c20.2-33.6,28.7-73.7,28.6-112.6C2184.7,2142.3,2172.9,2096.5,2160,2052z M1287.2,1792c0.1,0.1,0.2,0.2,0.4,0.2
				C1285.8,1794.9,1286.5,1790.8,1287.2,1792z"/>
			<path class="st4" d="M1884.7,2262c-15.4-21.2-34-40.8-51.2-60.6c-17.1-19.7-34.4-39.1-52.2-58.1c-35.9-38.1-74.1-74-115.8-105.6
				c-44.3-33.5-93.1-59.6-142.1-85.4c-48.3-25.4-97.2-50.5-149.2-67.4c-13.1-4.2-26.3-7.9-39.7-10.9c-10.9-2.5-21.3,5-21.6,16.4
				c-0.7,29.2,0.3,58.5,3,87.5c-0.7,36.4-1.4,72.8-2.1,109.1c-0.3,14.9-0.6,29.9-0.9,44.8c-0.2,13.3-0.3,27.2,3.7,40
				c8.2,26.6,31.5,41.6,52.8,57.1c93.3,67.7,188.6,132.7,285.8,194.7c11.6,7.4,23.6,16.6,37.4,19.2c14.6,2.7,27.9-1.6,40.3-9.2
				c23.2-14.1,45-30.9,66.2-47.8c21-16.7,41.2-34.5,60.4-53.2c9.5-9.2,20.7-18.6,27.7-29.9C1895.3,2289.7,1893.6,2274.4,1884.7,2262
				z"/>
			<path class="st4" d="M2186.8,2026.6c-2.9-13.8-6.4-27.8-11-41.3c2.4-57.6-22.2-111.3-48.9-161.9c-14.7-27.8-30-55.5-40.4-85.3
				c-10.5-30-16.7-61.3-21.8-92.6c-2.5-15.8-4.8-31.5-7.2-47.3c-2.2-14.7-3-31.1-7.9-45.2c-6.5-19.1-23.9-19.2-40.9-18.8
				c-17.1,0.4-34.1,0.8-51.2,1.2c-16.6,0.4-34.1-0.8-50.4,2.2c-15.6,2.8-26.8,14.6-29.8,30c-2.9,15-2.6,31-2.7,46.2
				c-0.2,16.1,0.2,32.3,1,48.4c3.5,65.6,15.3,130.7,35.1,193.3c-5.2-0.7-10.5-1.3-15.7-2c-25-3.2-51.5-9.1-76.8-6.4
				c-23.6,2.6-46.2,14-56.9,36.2c-9.6,20-9.5,42.4-5.2,63.9c4.6,23.2,15.1,45.2,26,66c12.2,23.5,26.3,46,41.2,67.9
				c27.4,40.4,56,80.7,87.3,118.3c28.8,34.6,61.9,67.1,101.7,88.7c37.8,20.5,86.4,34.7,128.4,18.4c21.8-8.5,38.7-24,47.9-45.6
				c9.3-21.9,10.2-46,10.1-69.5C2198.6,2136.4,2198,2080.8,2186.8,2026.6z"/>
			<path class="st4" d="M2018.3,1437c-11.6-30.9-20.1-62.9-25.4-95.5c-5.1-31.8-3.9-63.7-7.5-95.6c-1.7-15.7-3.6-34.9-18.5-44
				c-12.6-7.7-31.2-6.7-45.6-6.2c-30.3,1.1-55.5,13.9-72.5,39.2c-15.1,22.4-20.8,49.7-24.1,76.1c-4,32.1-4.3,64.6-0.9,96.7
				c2,18.8,5,37.5,9.3,56c4,17.1,8,36.2,16.2,51.9c7.7,14.7,21.7,18.8,36.3,17.3c3,1.3,6.5,1.7,10.5,0.8
				c17.4-3.9,34.8-7.8,52.2-11.7c16.2-3.7,33-6.5,49-11.2c13.5-4,27-11.9,31.4-26.1C2033.8,1468,2023.9,1452,2018.3,1437z"/>
			<path class="st6" d="M1271.7,1754.4c-0.1,0-0.2,0-0.2-0.1c-0.6-0.8-1.3-1.5-2-2.2c-7-6.5-17.6-10.6-25.9-15.2l-93.9-52.5
				c-31.3-17.5-62.6-35-93.9-52.5c-12.7-7.1-26.5-17.3-40.9-21.7c-23.1-42.7-50.4-83-81.4-120.5c-16.2-19.6-33.4-38.4-51.5-56.2
				c-9.2-9.1-18.7-17.9-28.4-26.4c-9.9-8.7-20-18-32.7-22.3c-1.5-0.5-2.9-0.9-4.4-1.2c-26.5-82.1-83.7-153.3-157.7-197.5
				c-19.1-11.4-39.4-20.9-60.4-28.5c-12.2-4.4-26-6.9-36.7,2.2c-10.7,9.1-11.4,24.5-10.3,37.6c2.3,28.3,14.7,53.9,26.7,79.1
				c12.3,25.7,25.1,51.2,38.1,76.5c7.5,14.5,15,29.1,22.6,43.6c6.5,12.6,12.7,25.5,21.2,36.9c11.7,15.8,28.6,27.7,46.9,30
				c-1.5,4.3-2.6,8.7-2.9,13.3c-1,14.5,6.3,27.5,12.8,39.9c6.8,13,13.7,25.9,20.6,38.8c13.7,25.3,27.7,50.5,42,75.4
				c15.2,26.5,29.5,54.9,48.3,79.1c11.7,15,29.7,27,48.3,28.3c-0.2,1.5-0.2,3.1-0.1,4.6c1,16.3,18.3,28.8,29,39.4
				c45.9,45.2,96.1,86.2,149.3,122.4c15,10.2,30.3,20,45.8,29.4c15.8,9.6,31.8,19.5,49,26.3c28.5,11.3,67.3,5.8,81.1-23.5
				c3.1-3.1,4.9-7.5,5.4-12.2c5.3-52.6,38.1-98,48.2-149.5C1285.3,1766.3,1281,1756.9,1271.7,1754.4z M585.3,1184.6
				c0-0.9,0-1.5,0-1.5C586.4,1183.3,586.1,1183.9,585.3,1184.6z"/>
			<path class="st3" d="M1004.6,1599.9c-1.1,0-2.2,0-3.3-0.1c-5.7-0.1-9,3.6-9.9,8c-45.3,38-88.4,78.5-129.2,121.4
				c-9.3,9.8,5.5,24.7,14.8,14.8c42.5-44.7,87.6-86.8,135-126.2C1019.4,1611.8,1013.1,1600.1,1004.6,1599.9z"/>
			<path class="st3" d="M823.1,1383.9c-2.7-4.5-9.7-7.1-14.4-3.8c-37,26.7-75.2,51.6-114.6,74.6c-11.7,6.8-1.1,25,10.6,18.1
				c39.4-23,77.6-47.9,114.6-74.6C823.9,1395,826.2,1389.1,823.1,1383.9z"/>
			<path class="st3" d="M1280.8,1746c-5.9-1.6-11,2-12.9,7.3c-18.3,49.7-42.6,97-72.1,141c-3.2,4.7-0.9,11.6,3.8,14.4
				c5.2,3,11.2,1,14.4-3.8c30.5-45.5,55.3-94.6,74.2-146C1290.1,1753.6,1286,1747.4,1280.8,1746z"/>
			<path class="st4" d="M1302.4,2023.8c-4.3-34.5-18.4-66.6-38.2-95c-20.4-29.3-45.4-55.5-72.5-78.7c-14-11.9-28.8-22.7-46.3-28.9
				c-17.9-6.3-38-5.4-55.7,1.1c-20,7.4-37.1,19.7-53.8,32.7c-16.3,12.8-30.9,26.7-38.2,46.7c-1.6,4.4-2.8,8.8-3.6,13.1
				c-9.6,28.5-5.1,61.3,9.6,87.5c0.1,0.2,0.2,0.3,0.3,0.5c6.6,21,20.2,39.6,37.5,53.8c27.9,22.7,62.3,36.7,97,45.3
				c37.8,9.4,77.6,11.8,116,4.2c18.3-3.6,35.1-12.2,43.1-29.9C1304.7,2060,1304.6,2041.2,1302.4,2023.8z"/>
			<path class="st3" d="M2035.6,1502.9c-8.1-4.2-19.4,0.5-27.7,2.1c-10.2,2-20.4,3.9-30.6,5.6c-40,6.7-80.4,10.7-121,12.3
				c-13.5,0.5-13.5,21.5,0,21c29.5-1.2,58.9-3.6,88.2-7.4c14.8-1.9,29.5-4.1,44.1-6.6c7-1.2,14-2.5,21-3.9c3.8-0.7,7.6-1.5,11.4-2.3
				c0.9-0.2,1.8-0.4,2.6-0.6c2,1.5,4.7,2.5,7.7,2.4C2044.4,1525.3,2046.1,1508.4,2035.6,1502.9z"/>
			<path class="st5" d="M2183.4,1975.5c-5.2-3-11.2-1-14.4,3.8c-9.2,13.8-26.1,20.9-42.2,22.1c-21.1,1.6-41.4-5.9-59.7-15.9
				c-19.2-10.4-37.5-22.9-55.2-35.8c-17.1-12.4-33.4-26-48.3-41.1c-16.5-16.7-30.7-35.2-41.7-56c-6.3-11.9-24.5-1.3-18.1,10.6
				c22.1,41.6,56.7,74.4,94.3,102.1c18.9,13.9,38.6,27.5,59.3,38.6c20.8,11.2,44.2,19.8,68.1,18.4c24.4-1.4,47.9-11.9,61.7-32.6
				C2190.4,1985.1,2188.1,1978.2,2183.4,1975.5z"/>
			<path class="st2" d="M901.2,1356.8c-2.7-4.7-9.6-6.9-14.4-3.8c-2.9,2-9.2,1-13,1.3c-6.1,0.5-12.2,1.3-18.2,2.3
				c-11.8,1.9-23.3,5-34.5,9.1c-5.3,1.9-8.9,7.1-7.3,12.9c1.4,5.1,7.6,9.3,12.9,7.3c11.8-4.3,23.9-7.5,36.3-9.4
				c5.7-0.9,11.5-1.4,17.3-1.6c6-0.3,12.1-0.3,17.2-3.8C902.1,1368,904.2,1361.9,901.2,1356.8z"/>
			<path class="st7" d="M840.5,1723.6c-2.7-4.6-9.7-7-14.4-3.8c-10.4,7.3-20.8,14.5-31.2,21.8c-4.6,3.2-6.8,9.2-3.8,14.4
				c2.7,4.6,9.7,7,14.4,3.8c10.4-7.3,20.8-14.5,31.2-21.8C841.4,1734.7,843.5,1728.7,840.5,1723.6z"/>
			<path class="st7" d="M998.9,1454.4c-24.2,0.4-48.3,1.5-72.5,3.4c-5.7,0.4-10.5,4.5-10.5,10.5c0,5.3,4.8,10.9,10.5,10.5
				c24.1-1.9,48.3-3,72.5-3.4C1012.4,1475.1,1012.4,1454.1,998.9,1454.4z"/>
			<path class="st7" d="M1149.1,1567.3c-40,3.2-77.3-17.6-116.8-20.8c-5.7-0.5-10.5,5.2-10.5,10.5c0,6.1,4.8,10,10.5,10.5
				c39.7,3.2,76.3,24.1,116.8,20.8c5.7-0.4,10.5-4.5,10.5-10.5C1159.6,1572.5,1154.8,1566.9,1149.1,1567.3z"/>
			<path class="st3" d="M1396.2,1790.6c-4.5-2.6-12-1.4-14.4,3.8c-11,24.4-16.9,50.5-16.6,77.3c0.1,13.5,21.1,13.5,21,0
				c-0.2-22.9,4.3-45.8,13.8-66.7C1402.3,1799.8,1401.5,1793.7,1396.2,1790.6z"/>
			<path class="st3" d="M1825.6,1825c-0.1,0-0.2,0-0.3,0c-0.2-0.1-0.3-0.2-0.5-0.3c0,0,0,0,0,0c0,0,0,0,0,0
				c-1.5-5.3-7.5-9.1-12.9-7.3c-5.4,1.7-9,7.3-7.3,12.9c2.7,9.2,11.4,16,21.1,15.8c5.5-0.1,10.8-4.8,10.5-10.5
				C1835.8,1829.9,1831.4,1824.9,1825.6,1825z"/>
			<path class="st5" d="M1879.6,2255c-21.3-3.7-38.9,6.8-57.5,15.3c-7.9,3.6-16.5,6.7-25.1,5.6c-9.2-1.2-17.3-7.1-24.1-13.1
				c-17.1-15-32.8-31.8-49.1-47.6c-16.3-15.9-32.7-31.8-49.2-47.6c-65.8-62.6-134.6-123.1-212.1-171
				c-43.3-26.8-89.3-49.2-137.6-65.5c-12.8-4.3-18.3,15.9-5.6,20.2c84.9,28.7,161.4,77.6,230.8,133.7
				c70.9,57.4,134.9,122.2,200.3,185.5c9.1,8.8,18.8,17.3,30.6,22.3c0.4,0.2,0.9,0.3,1.3,0.5c-9.3,29.1-18.9,58.5-35.8,84.3
				c-8.3,12.7-18.5,23.7-30.5,33c-13,10.2-26.4,19.4-35.6,33.4c-7.4,11.3,10.7,21.9,18.1,10.6c8.6-13.1,22.9-21.5,34.8-31.2
				c12.7-10.3,23.3-22.9,32.1-36.6c17.5-27.3,27.7-58.6,37.5-89.3c0.1-0.3,0.1-0.5,0.2-0.8c4.5-0.2,8.9-0.9,13.3-2.2
				c10.8-3.1,20.8-8.6,31-13.3c8.3-3.9,17.9-7.6,26.6-6.1c5.6,1,11.3-1.5,12.9-7.3C1888.3,2262.9,1885.2,2256,1879.6,2255z"/>
			<path class="st5" d="M1285.2,2080.2c-18.7-44.1-44.8-84.8-76.6-120.6c-15.6-17.5-32.6-33.8-50.9-48.5
				c-12.6-10.2-25.7-19.9-39.8-27.6c10-19,19.3-38.4,27.9-58.2c2.3-5.2,1.5-11.3-3.8-14.4c-4.4-2.6-12.1-1.5-14.4,3.8
				c-8.8,20.2-18.3,40.1-28.6,59.6c0,0.1-0.1,0.1-0.1,0.2c-1.7-0.7-3.5-1.3-5.2-1.9c-26.2-8.9-56.7-8.3-80.4,7.1
				c-11.3,7.3-0.8,25.5,10.6,18.1c40.1-26,87.2,2.4,119,28.1c34.6,27.9,64.7,61.2,88.9,98.4c13.7,21.1,25.5,43.3,35.3,66.4
				c2.2,5.2,9.9,6.4,14.4,3.8C1286.9,2091.4,1287.5,2085.4,1285.2,2080.2z"/>
			<path class="st5" d="M2188.8,2219.8c-2.7-4.5-9.7-7.1-14.4-3.8c-28.4,20.4-64.7,29.5-99.4,24.1c-38.3-6-68.6-29.2-95.7-55.5
				c-27.9-27.1-54.7-55.5-80.3-84.8c-25.5-29.1-49.7-59.5-70.9-92c-23.7-36.1-43.7-74.7-57.6-115.7c-4.3-12.7-24.6-7.3-20.2,5.6
				c26.2,77.5,72.6,145.6,125.5,207.2c26.6,31,54.8,60.9,83.8,89.6c28.7,28.4,61.1,55.2,101.4,64.1c42.4,9.4,88.7,0.8,124.1-24.6
				C2189.7,2230.8,2191.9,2225,2188.8,2219.8z"/>
			<path class="st2" d="M2246.5,2273.9c-1.4-5-7.6-9.5-12.9-7.3c-28.5,11.4-60.5,25.2-76.1,53.5c-9.1,16.6-10,35.6-10.6,54.1
				c-0.6,18.9,0.4,39.1,10.1,55.8c9.5,16.4,27.9,29.5,47.5,27.3c5.6-0.6,10.5-4.4,10.5-10.5c0-5.2-4.8-11.1-10.5-10.5
				c-12.3,1.4-22.8-5.9-29-16.3c-7.9-13.1-8.1-29.3-7.7-44.1c0.4-14.6,0.2-30.7,7.1-44c5.6-10.8,14.6-19.1,24.7-25.6
				c12.3-8,25.9-14,39.5-19.4C2244.4,2284.7,2248.1,2279.8,2246.5,2273.9z"/>
			<path class="st2" d="M2264.3,2315.7c-2.7-4.7-9.6-6.9-14.4-3.8c-25.4,17.1-51.6,37.5-55.4,70.1c-3.4,29.4,20.8,58.4,51.6,52.5
				c5.6-1.1,8.8-7.8,7.3-12.9c-1.6-5.8-7.3-8.4-12.9-7.3c-7.3,1.4-15.1-3-19.8-8.8c-6.1-7.5-6.7-17.8-4.4-26.8
				c5.7-22.4,26.1-36.4,44.2-48.5C2265.2,2326.9,2267.3,2320.8,2264.3,2315.7z"/>
			<path class="st8" d="M1464.2,2073.1c-1.1-10.3-7.2-18.4-17-22.3c-14.3-5.7-29.1-0.8-39.4,9.1c-1.4,0.8-2.6,2-3.4,3.6
				c-1.2,1.5-2.4,3.1-3.5,4.7c-6,9.4-9,20.3-11.9,30.9c-3.5,13-7.1,26-10.6,39.1c-2,7.5-4,14.9-6.1,22.4
				c-4.8,12.1-9.5,24.3-13.4,36.7c-5.9,19.3-13,48.5,8.4,61.4c9.5,5.8,21.4,4.8,29.5-2.9c7.2-6.9,11.8-17.2,16.5-25.8
				c21.4-38.9,37.2-80.9,46.3-124.2C1461.9,2095.4,1465.3,2083.7,1464.2,2073.1z"/>
			<path class="st8" d="M1524.4,2224.8c-1.7-5.6-5.3-10.3-10.5-13.7c-0.5-0.3-1.1-0.7-1.6-1c-3.3-3.1-7.1-5.7-11.1-7.6
				c-8.1-4-19.9-7.8-28.7-4.1c-12.3,5.2-11.8,20.7-7,31c4.4,9.4,12.9,15.6,22.2,19.5c5.8,3.2,12.5,5,18.7,3.7
				c5.9-0.3,11.5-2.4,15.8-7.3C1527.8,2239.1,1528,2231.1,1524.4,2224.8z"/>
			<path class="st8" d="M1604.5,2265c-9.6-6.8-25.7-14.1-37.7-10.7c-2.6,0.7-4.6,1.8-6.2,3.2c-2.7,1-5,3.2-6,6.7
				c-4.1,14,4.9,26.3,15.6,34.3c5.1,3.8,10.5,6.8,16.3,9.2c4.4,1.9,9,3.8,13.8,4.3c3.5,1,7.2,1.4,11,0.1c6.4-2,11-7.8,12.4-14.3
				C1626.7,2283.9,1614.9,2272.3,1604.5,2265z"/>
		</g>
		<path class="st9" d="M2148.6,788.2c-5.2-23.6-39.6-29.5-52.4-9.1c-3,4.7-4.5,10.5-4.3,16.1c-59.7,26.5-118.6,55.1-176.3,85.7
			c-34,18-67.6,36.8-100.8,56.2c-40.1-52.9-80.3-105.8-120.4-158.7c-7.9-10.5-15.9-20.9-23.8-31.4c0.7-2.5,1.2-5,1.3-7.6
			c0.5-18.7-17.9-29.4-34.2-26.6c-2.5-0.5-5.2-0.1-7.7,1c-18.9,8.3-20.6,37-6.2,50.2c10.6,9.7,24.1,8.1,34.1,0.8
			c35.9,47.3,71.8,94.7,107.8,142c10.4,13.7,20.8,27.4,31.1,41c-20.8,12.4-41.5,25-62,38c-14.9,9.4-29.8,19-44.5,28.7
			c-7.2,4.8-14.5,9.6-21.7,14.4c-6.7,4.5-13.7,8.9-19.4,14.7c-12.9,13.2-13.6,30.2-13.6,47.6c0,18.9,0.1,37.9,0.1,56.8
			c0.2,62.4,0.3,124.7,0.5,187.1c-87.9-66.5-175.9-133-263.8-199.4c-24.7-18.7-49.4-37.4-74.1-56c0.1-0.7,0.2-1.5,0.1-2.4
			c-3.1-67-3.9-134-2.4-201c6.6-4.4,11.6-11.2,14.1-18.6c9.2-28-26.2-46.9-49.2-36.3c-10.9,5-17.7,16.6-17.1,28.6
			c0.6,11.1,7.6,21.1,18.2,23.8c3.6,3.5,8.1,5.9,13,6.9c-1.4,65.6-0.5,131.2,2.5,196.7c0.2,3.6,1.8,6.2,4,7.9
			c-1.1,4.5,1.1,8.8,4.9,11.6c89.3,67.5,178.6,135,267.9,202.5c25.2,19,50.3,38.1,75.5,57.1c1.9,1.4,4.3,1.8,6.6,1.4l0,14.6
			c0.2,75.1,0.4,150.1,0.6,225.2c0,9.3,0,18.6,0.1,27.9c0,13.5,21,13.5,21,0c-0.2-73.7-0.4-147.5-0.6-221.2
			c-0.2-74.1-0.4-148.1-0.6-222.2l-0.1-55.8c0-9,0-17.9-0.1-26.9c0-8.5-0.7-17.3,0.5-25.8c2.1-15.5,16.4-22.6,28.2-30.5
			c14.2-9.5,28.4-18.8,42.8-28c58.2-37.3,117.7-72.4,178.5-105.2c60.5-32.7,122.2-63.2,184.9-91.3c3.1-1.4,6.3-2.8,9.4-4.2
			c1.7,1.9,3.6,3.5,5.6,5C2127.6,833.3,2153.8,811.6,2148.6,788.2z"/>
		<path class="st9" d="M2029.4,1066.9c-60-2.1-120.1-1.4-180.1,2.2c-5.7,0.3-10.5,4.6-10.5,10.5c0,5.4,4.8,10.8,10.5,10.5
			c59.9-3.6,120-4.4,180.1-2.2C2043,1088.4,2042.9,1067.4,2029.4,1066.9z"/>
		<path class="st9" d="M2141.4,1009.7c-46.6-1.2-93.3-2.5-139.9-3.7c-13.5-0.4-13.5,20.6,0,21c46.6,1.2,93.3,2.5,139.9,3.7
			C2154.9,1031,2154.9,1010,2141.4,1009.7z"/>
		<path class="st9" d="M2189.4,1058.1c-22.6,1.7-45.3,3.4-67.9,5.2c-5.7,0.4-10.5,4.5-10.5,10.5c0,5.3,4.8,10.9,10.5,10.5
			c22.6-1.7,45.3-3.4,67.9-5.2c5.7-0.4,10.5-4.5,10.5-10.5C2199.9,1063.3,2195.1,1057.7,2189.4,1058.1z"/>
		<path class="st9" d="M2141.7,1113c-29.3,2.3-58.8,2.7-88.2,1.2c-13.5-0.7-13.5,20.3,0,21c29.4,1.4,58.8,1,88.2-1.2
			c5.7-0.4,10.5-4.5,10.5-10.5C2152.2,1118.1,2147.3,1112.5,2141.7,1113z"/>
		<path class="st9" d="M1307,1347.5c-0.5-0.4-1-0.8-1.5-1.2c-0.9-1.1-2-2-3.3-2.6c-77-60.8-152.9-123-227.7-186.5
			c-19.6-16.7-39.2-33.4-58.7-50.3c0.7-1.4,1.1-3,1-4.9c-1.9-68.8-3.7-137.5-5.6-206.3c-1.3-47.7-2.6-95.3-3.9-143
			c1.4-0.2,2.8-0.7,4.2-1.6c34.4-22.3,68.5-45.2,102.2-68.5c16.7-11.6,33.4-23.3,49.9-35.1c16.9-12.1,34.5-23.8,50.7-36.9
			c0.2-0.2,0.4-0.3,0.6-0.5c4,1.9,8.3,2.9,13,2.7c24.5-1.3,33.5-31.2,23.6-50.4c-11.7-22.6-48.7-23.9-60.8-1
			c-6.6,12.5-3.7,27.7,4.8,37.3c-2.9,2.1-5.8,4.2-8.7,6.4c-6.5,4.8-13.1,9.5-19.6,14.2c-13.1,9.4-26.2,18.8-39.4,28.1
			c-26.7,18.8-53.6,37.2-80.7,55.3c-13.4,8.9-26.8,17.8-40.3,26.6c-0.4-13.6-0.7-27.2-1.1-40.8c-0.9-33.1-1.8-66.1-2.7-99.2
			c1.8-0.6,3.5-1.3,5.2-2.3c11.6-6.8,17.9-22.2,13.1-35c-5.2-14-22.8-22.4-36.2-14c-2.8,1.8-5,4.1-6.5,6.7
			c-7.8,5.9-12.2,15.8-9.4,26.6c1.9,7.2,6.7,12.7,12.7,16c1.7,63.7,3.4,127.3,5.2,191c0,1.1,0.1,2.2,0.1,3.4
			c-35.4-29.9-70.9-59.9-106.3-89.8c-20.3-17.2-40.7-34.4-61-51.6c-4.1-3.5-8.5-6.8-12-11c-3.3-4-4.7-8.9-5.4-14
			c-1.9-12.7-2.1-25.9-2.9-38.8c-1.3-22.5-1.9-45-2-67.6c0.7-0.5,1.3-1,2-1.6c5.8-5.5,8.5-13.5,9.3-21.3c0.8-8.5-0.8-17.8-7.6-23.5
			c-6.2-5.1-14.9-6.5-22.5-3.8c-0.1,0-0.2,0.1-0.4,0.1c-1.9,0.3-3.6,1.2-5.1,2.7c-6.7,4.7-9.8,12.4-9.6,20.2
			c-0.6,2.9-0.9,5.8-0.5,8.9c0.8,8.2,5.4,16.3,12.9,20.1c0.2,0.1,0.4,0.2,0.6,0.3c0.1,19.5,0.7,39,1.7,58.5
			c0.7,13.4,1.5,26.8,2.6,40.2c0.8,9.2,2.3,17.8,6.3,25.6c-0.4,0.3-0.8,0.6-1.2,1c-78.8,77.9-162,151.2-249.3,219.5
			c-21.6,16.9-43.4,33.5-65.5,49.7c-21.9,16.2-44.5,31.5-66.5,47.6c-10.3,7.6-20,16.1-25.2,28.1c-5.5,12.9-5.2,27.2-5.5,40.9
			c-0.8,29.9-1.5,59.9-2.3,89.8c-1.4,56.3-2.9,112.5-4.3,168.8c-0.2,0.1-0.4,0.1-0.5,0.2c-16.9,7.1-26.5,24-28.1,41.6
			c-4.6,8.7-5.7,19.3-1.3,28.7c10.3,22.1,39.9,26.7,59.3,14.7c20.5-12.7,36.1-43.2,24.5-66.4c-6.2-12.4-19.2-19.9-32.8-21.5
			c1.2-47.4,2.4-94.8,3.7-142.2c0.8-29.3,1.5-58.5,2.3-87.8c0.4-14.7,0.2-29.6,1.3-44.4c0.9-11.9,5.4-20.5,14.3-28.2
			c9.2-8,20-14.5,29.9-21.6c11-7.8,22-15.7,33-23.7c22.3-16.3,44.4-33,66.3-49.9c43.1-33.3,85.2-67.9,126.3-103.6
			c46.3-40.3,91.3-82,135-125.1c7.3,6.7,15.4,12.7,22.8,19c10.4,8.8,20.9,17.6,31.3,26.4c20.9,17.6,41.7,35.2,62.6,52.9
			c23.6,19.9,47.2,39.9,70.8,59.8c1.4,50.4,2.7,100.8,4.1,151.1c-45.4-38.5-88.9-79.2-130.2-122.1c1.6-1.9,2.9-4.1,4-6.4
			c7.4-16.8-4.5-36.7-22.4-39.5c-9.7-1.5-20.1,2-25.2,10.8c-4.6,7.8-5.1,17.8-3.6,26.5c1.7,9.6,8.1,18.3,17.5,21.3
			c4.5,1.4,9,1.5,13.2,0.3c45.9,47.8,94.5,93,145.5,135.4c0.6,0.5,1.3,1,2,1.4c1,37.3,2,74.6,3,111.9c-0.5,0.3-0.9,0.7-1.3,1.1
			c-3.8,3.8-4.3,11.1,0,14.8c75.7,65.6,152.6,129.9,230.6,192.8c20.3,16.4,40.8,32.7,61.3,48.9c-1.9,65.8-3.8,131.7-5.7,197.5
			c-0.4,13.5,20.6,13.5,21,0c1.8-64.3,3.7-128.7,5.5-193C1310.7,1358.5,1311.4,1351,1307,1347.5z M404,1318.9
			c-0.6,5.8-3.1,11.8-6.3,16.9c3.6-9.4,4.6-19.8,2.2-29.9c0-0.2,0-0.5,0-0.7C403.2,1308.7,404.6,1313,404,1318.9z"/>
		<path class="st9" d="M784.6,977.8c-27.1-1.1-54,0.6-80.8,4.7c-5.6,0.9-8.7,7.9-7.3,12.9c1.6,6,7.3,8.2,12.9,7.3
			c24.9-3.8,50.1-5,75.2-3.9C798.1,999.4,798.1,978.4,784.6,977.8z"/>
		<path class="st9" d="M720.5,937.1c-26,3.4-52.2,4.1-78.3,2c-5.7-0.5-10.5,5.2-10.5,10.5c0,6.1,4.8,10,10.5,10.5
			c26.1,2.1,52.3,1.4,78.3-2c5.6-0.7,10.5-4.3,10.5-10.5C731,942.5,726.2,936.4,720.5,937.1z"/>
		<path class="st9" d="M871.8,1027.6c-21.4,1.6-42.8,3.3-64.3,4.9c-5.7,0.4-10.5,4.5-10.5,10.5c0,5.3,4.8,10.9,10.5,10.5
			c21.4-1.6,42.8-3.3,64.3-4.9c5.7-0.4,10.5-4.5,10.5-10.5C882.3,1032.8,877.5,1027.2,871.8,1027.6z"/>
		<path class="st9" d="M674.3,1023.6c-20.9,0-41.7,1.7-62.3,4.5c-5.6,0.8-8.7,8-7.3,12.9c1.7,6.1,7.3,8.1,12.9,7.3
			c18.8-2.6,37.8-3.7,56.8-3.8C687.8,1044.5,687.8,1023.5,674.3,1023.6z"/>
		<path class="st9" d="M2245.8,1250c-3.8-3.8-11.1-4.3-14.8,0c-7.3,8.5-16.3,14-27.2,16.5c-13.2,3-7.6,23.3,5.6,20.2
			c14.1-3.2,27-10.9,36.5-21.9C2249.5,1260.6,2250,1254.3,2245.8,1250z"/>
		<path class="st9" d="M2333,1238.9c-9.1-1.7-18.3-3.4-27.4-5.1c-5.6-1-11.3,1.5-12.9,7.3c-1.4,5.1,1.7,11.9,7.3,12.9
			c9.1,1.7,18.3,3.4,27.4,5.1c5.6,1,11.3-1.5,12.9-7.3C2341.8,1246.7,2338.6,1240,2333,1238.9z"/>
		<path class="st9" d="M2413.8,1332.9c-4.6-14.5-14.2-26.6-27.5-34c-11.8-6.6-22.4,11.5-10.6,18.1c8.5,4.8,14.9,12.1,17.9,21.5
			C2397.7,1351.3,2417.9,1345.8,2413.8,1332.9z"/>
		<path class="st9" d="M2381.5,1422.4c-4.9,9-9.7,18.1-14.6,27.1c-6.4,11.9,11.7,22.5,18.1,10.6c4.9-9,9.7-18.1,14.6-27.1
			C2406,1421.1,2387.9,1410.5,2381.5,1422.4z"/>
		<path class="st9" d="M2335,1509.8c-3-5.2-9.3-6.3-14.4-3.8c-9.2,4.6-18.4,9.2-27.5,13.8c-5.1,2.5-6.5,9.7-3.8,14.4
			c3,5.2,9.3,6.3,14.4,3.8c9.2-4.6,18.4-9.2,27.5-13.8C2336.3,1521.6,2337.7,1514.4,2335,1509.8z"/>
		<path class="st9" d="M1926.9,566.4c-2.7-19.9-5.4-39.9-8.1-59.8c-0.8-5.6-8-8.7-12.9-7.3c-6.1,1.7-8.1,7.3-7.3,12.9
			c2.7,19.9,5.4,39.9,8.1,59.8c0.8,5.6,8,8.7,12.9,7.3C1925.6,577.7,1927.6,572.1,1926.9,566.4z"/>
		<path class="st9" d="M1980.8,377.7c-3.8-3.8-11.1-4.3-14.8,0c-9.2,10.7-18.4,21.4-27.7,32.1c-3.7,4.3-4.2,10.6,0,14.8
			c3.8,3.8,11.1,4.3,14.8,0c9.2-10.7,18.4-21.4,27.7-32.1C1984.5,388.2,1985,381.9,1980.8,377.7z"/>
		<path class="st9" d="M2104.9,393.8c-10.8-2.5-21.7-5.1-32.5-7.6c-13.1-3.1-18.8,17.2-5.6,20.2c10.8,2.5,21.7,5.1,32.5,7.6
			C2112.5,417.2,2118.1,396.9,2104.9,393.8z"/>
		<path class="st9" d="M2200.3,492.6c-1.7-10.7-3.4-21.4-5-32.1c-0.9-5.6-7.9-8.7-12.9-7.3c-6,1.6-8.2,7.3-7.3,12.9
			c1.7,10.7,3.4,21.4,5,32.1c0.9,5.6,7.9,8.7,12.9,7.3C2198.9,503.9,2201.2,498.2,2200.3,492.6z"/>
		<path class="st9" d="M2166.9,582.7c-4.6-2.7-11.8-1.3-14.4,3.8c-5.2,10.5-12.9,18.8-23.2,24.5c-11.8,6.6-1.2,24.7,10.6,18.1
			c13.2-7.3,24-18.5,30.7-32C2173.2,592,2172,585.7,2166.9,582.7z"/>
		<path class="st9" d="M2060.9,654.9h-27.5c-13.5,0-13.5,21,0,21h27.5C2074.4,675.9,2074.4,654.9,2060.9,654.9z"/>
		<path class="st9" d="M1964.7,629.5l-22.7-14.1c-11.5-7.2-22.1,11-10.6,18.1l22.7,14.1C1965.7,654.7,1976.2,636.6,1964.7,629.5z"/>
		<path class="st9" d="M381.8,515.2c-17.3,19.3-24.4,44.7-20.2,70.2c0.9,5.6,7.9,8.7,12.9,7.3c5.9-1.6,8.3-7.3,7.3-12.9
			c-2.9-17.7,2.9-36.5,14.8-49.8C405.6,520,390.8,505.1,381.8,515.2z"/>
		<path class="st9" d="M499.6,476.3c-3.1-5.4-9.1-6-14.4-3.8c-8.5,3.7-17.7,4.3-26.8,3.2c-5.6-0.7-10.5,5.3-10.5,10.5
			c0,6.2,4.8,9.8,10.5,10.5c13,1.6,25.5-0.9,37.4-6.1C501.1,488.4,502.2,480.7,499.6,476.3z"/>
		<path class="st9" d="M572.9,573.1c-6.2-9.1-12.5-18.2-18.7-27.3c-3.2-4.7-9.2-6.8-14.4-3.8c-4.6,2.7-7,9.7-3.8,14.4
			c6.2,9.1,12.5,18.2,18.7,27.3c3.2,4.7,9.2,6.8,14.4,3.8C573.7,584.7,576.1,577.8,572.9,573.1z"/>
		<path class="st9" d="M530.5,644.1c-3.6,11.1-14.3,19.7-26.1,20.5c-5.7,0.4-10.5,4.6-10.5,10.5c0,5.4,4.8,10.9,10.5,10.5
			c21.4-1.4,39.7-15.4,46.4-35.9C555,636.8,534.7,631.3,530.5,644.1z"/>
		<path class="st9" d="M438.3,664.4l-23-9.2c-5.3-2.1-11.5,2.3-12.9,7.3c-1.6,6,2,10.8,7.3,12.9l23,9.2c5.3,2.1,11.5-2.3,12.9-7.3
			C447.3,671.4,443.6,666.6,438.3,664.4z"/>
		<path class="st9" d="M2149.4,1332c-2.5,8.6-6.4,16.7-12,23.7c-3.5,4.4-4.3,10.5,0,14.8c3.7,3.7,11.3,4.4,14.8,0
			c7.9-9.9,13.9-20.8,17.4-33C2173.4,1324.6,2153.2,1319,2149.4,1332z"/>
		<path class="st9" d="M2176.9,1462.5c-1.7-7.9-3.5-15.8-5.2-23.7c-1.2-5.5-7.7-8.8-12.9-7.3c-5.7,1.6-8.6,7.4-7.3,12.9
			c1.7,7.9,3.5,15.8,5.2,23.7c1.2,5.5,7.7,8.8,12.9,7.3C2175.2,1473.8,2178.1,1468,2176.9,1462.5z"/>
		<path class="st9" d="M2242.2,1519.1c-11.9-7.6-26.2-11.2-40.2-9.6c-5.6,0.6-10.5,4.4-10.5,10.5c0,5.2,4.8,11.1,10.5,10.5
			c10.7-1.2,20.5,0.9,29.6,6.7C2243,1544.6,2253.6,1526.4,2242.2,1519.1z"/>
		<path class="st9" d="M2495.5,936.7c-6.8-1.1-13.6-2.2-20.4-3.3c1.9-10.7,2.2-21.7,0.7-32.3c-0.4-2.6-0.8-5.2-1.4-7.8
			c3.2-1.2,6.3-2.3,9.5-3.5c5.5-2.1,10.8-4.6,12.6-10.7c1.6-5.4-0.4-10.5-2.5-15.5c-2.1-5-4.3-9.8-7.1-14.5
			c-4.9-8.2-12.4-21.3-23.8-18.1c-5.1,1.4-9.3,6-13.3,9.2c-0.9,0.7-1.7,1.4-2.6,2.1c-0.7-0.7-1.3-1.4-2-2.1c-3.7-3.6-7.6-6.9-12.5-8
			c-4.6-3.5-9.9-5.9-15.4-7.4c0-0.1,0-0.1,0-0.2c-0.8-10.5-2.1-20.9-3.9-31.3c-0.9-4.9-5.8-7.2-10.1-7.7c-7.3-0.9-14.5-0.8-21.8,0.1
			c-7.5,1-17.1,2-22.8,7.6c-5.7,5.6-5.8,14.4-5.5,21.9c0.3,7.3,1.5,14.6,3.5,21.6c-2.1,1.3-4.2,2.7-6.2,4.2
			c-9.6-5.8-23-10.6-33.7-7.5c-6.4,1.9-9.9,7.5-13.3,12.8c-3.5,5.5-7,11.1-10.2,16.8c-3.1,5.7-5.9,11.7-8.2,17.8
			c-2.2,5.8-4.7,12.4-2.6,18.6c2.4,7.3,10.2,10.5,16.8,13c3.5,1.4,7.2,2.3,10.9,3c-0.5,10.3,0.5,20.6,3.1,30.8
			c-10.5,4.7-19.8,11.4-23.8,23.2c-2.5,7.6-1,15,1.7,22.3c3,8.4,6,16.7,9,25.1c2.8,7.9,11.2,9.7,17.5,4.6
			c9.8-7.8,19.9-15.2,30.2-22.2c4.5,3.4,9.4,6.4,14.5,8.7c3.8,1.7,7.7,3.1,11.6,4c-0.3,5.7-0.2,11.4,0.4,17
			c0.6,6.1,1.3,12.3,6.1,16.7c8.5,7.8,24.9,3.9,34.7,0.8c10.4-3.4,23.8-8.7,24.1-21.6c0.2-8-3.5-16.3-8-23.5
			c7.1-4.5,13.4-9.9,18.9-16.1c4.6,5,11.1,9.5,17,9.6c9.9,0,14.4-11.2,18.9-18.3c5.2-8.1,10.3-16.2,15.5-24.3
			C2505.1,946.8,2502.2,937.8,2495.5,936.7z M2400.6,934.1c-7.4,6.9-18.1,9.3-27.1,4.2c-10.8-6.1-10.1-18.9-6.9-29.4
			c3.4-11.3,12.7-24.6,26.1-19.8c1.9,0.7,3.9,0.6,5.8,0c5.4,3.2,9.9,8.6,11.7,14.3C2413.7,914.3,2408.7,926.5,2400.6,934.1z"/>
		<path class="st9" d="M1065.8,2302.4c-6.8-1.1-13.6-2.2-20.4-3.3c1.9-10.7,2.2-21.7,0.7-32.3c-0.4-2.6-0.8-5.2-1.4-7.8
			c3.2-1.2,6.3-2.3,9.5-3.5c5.5-2.1,10.8-4.6,12.6-10.7c1.6-5.4-0.4-10.5-2.5-15.5c-2.1-5-4.3-9.8-7.1-14.5
			c-4.9-8.2-12.4-21.3-23.8-18.1c-5.1,1.4-9.3,6-13.3,9.2c-0.9,0.7-1.7,1.4-2.6,2.1c-0.7-0.7-1.3-1.4-2-2.1c-3.7-3.6-7.6-6.9-12.5-8
			c-4.6-3.5-9.9-5.9-15.4-7.4c0-0.1,0-0.1,0-0.2c-0.8-10.5-2.1-20.9-3.9-31.3c-0.9-4.9-5.8-7.2-10.1-7.7c-7.3-0.9-14.5-0.8-21.8,0.1
			c-7.5,1-17.1,2-22.8,7.6c-5.7,5.6-5.8,14.4-5.5,21.9c0.3,7.3,1.5,14.6,3.5,21.6c-2.1,1.3-4.2,2.7-6.2,4.2
			c-9.6-5.8-23-10.6-33.7-7.5c-6.4,1.9-9.9,7.5-13.3,12.8c-3.5,5.5-7,11.1-10.2,16.8c-3.1,5.7-5.9,11.7-8.2,17.8
			c-2.2,5.8-4.7,12.4-2.6,18.6c2.4,7.3,10.2,10.5,16.8,13c3.5,1.4,7.2,2.3,10.9,3c-0.5,10.3,0.5,20.6,3.1,30.8
			c-10.5,4.7-19.8,11.4-23.8,23.2c-2.5,7.6-1,15,1.7,22.3c3,8.4,6,16.7,9,25.1c2.8,7.9,11.2,9.7,17.5,4.6
			c9.8-7.8,19.9-15.2,30.2-22.2c4.5,3.4,9.4,6.4,14.5,8.7c3.8,1.7,7.7,3.1,11.6,4c-0.3,5.7-0.2,11.4,0.4,17
			c0.6,6.1,1.3,12.3,6.1,16.7c8.5,7.8,24.9,3.9,34.7,0.8c10.4-3.4,23.8-8.7,24.1-21.6c0.2-8-3.5-16.3-8-23.5
			c7.1-4.5,13.4-9.9,18.9-16.1c4.6,5,11.1,9.5,17,9.6c9.9,0,14.4-11.2,18.9-18.3c5.2-8.1,10.3-16.2,15.5-24.3
			C1075.4,2312.5,1072.4,2303.5,1065.8,2302.4z M970.8,2299.8c-7.4,6.9-18.1,9.3-27.1,4.2c-10.8-6.1-10.1-18.9-6.9-29.4
			c3.4-11.3,12.7-24.6,26.1-19.8c1.9,0.7,3.9,0.6,5.8,0c5.4,3.2,9.9,8.6,11.7,14.3C983.9,2280,978.9,2292.2,970.8,2299.8z"/>
		<path class="st9" d="M808,2099.2c-19-21.6-38.1-43.1-57.1-64.7c-3.8-4.3-11-3.8-14.8,0c-4.2,4.2-3.8,10.6,0,14.8
			c19,21.6,38.1,43.1,57.1,64.7c3.8,4.3,11,3.8,14.8,0C812.2,2109.8,811.8,2103.5,808,2099.2z"/>
		<path class="st9" d="M662.8,1921.5c-17.4-21.8-34.7-43.7-52.1-65.5c-3.5-4.4-11.2-3.7-14.8,0c-4.4,4.4-3.5,10.4,0,14.8
			c17.4,21.8,34.7,43.7,52.1,65.5c3.5,4.4,11.2,3.7,14.8,0C667.2,1932,666.4,1926,662.8,1921.5z"/>
		<path class="st9" d="M800,1962.7c-19.6-30.4-43.6-57.8-71.4-80.9c-4.4-3.6-10.6-4.3-14.8,0c-3.7,3.7-4.4,11.2,0,14.8
			c26.5,22,49.5,47.7,68.2,76.6C789.2,1984.6,807.4,1974.1,800,1962.7z"/>
		<g class="st1">
			<path class="st10" d="M530.8,1487.2c-15-25.8-37.9-47.5-65.8-58.5c-24.1-9.6-52.3-10.2-77.1-2.3c-2.8-0.9-6-0.6-9,0.7
				c-25.3,11.3-42.5,34.8-54.5,59c-13.7,27.6-26.6,58.7-27.5,89.9c-1.5,53.3,38.4,103.1,88.7,118c52.7,15.7,110.1-9.6,141.6-52.8
				C559.6,1596.5,557.9,1534,530.8,1487.2z M518.1,1616c-21,40-67.6,67.2-113.1,60.9c-43.2-6-80.7-43.6-86.4-86.9
				c-3.9-29.1,8.3-59,20.2-85.1c7.8-17.2,17.5-34.4,31.4-46.9c0.3-0.1,0.5-0.3,0.8-0.4c20.9-13.6,46.8-18.8,71.3-13.7
				c25.1,5.2,46.7,20.7,61.9,41.1C531.6,1521.6,539.8,1574.6,518.1,1616z"/>
			<path class="st10" d="M495.3,1556.3c-0.3-13.5-21.3-13.5-21,0c0.5,19.7-5.1,40.2-20.2,53.6c-14.1,12.5-34.4,15.6-50.6,5.6
				c-33.1-20.4-41.1-68.5-21.4-100.5c10.8-17.6,28.4-30.1,48.4-34.8c13.2-3.1,7.6-23.3-5.6-20.2c-23.3,5.5-43.4,19.7-57.3,39
				c-14.5,20-19.6,44.9-16.1,69.2c3.6,24.7,17,48.1,37.3,62.8c21.3,15.4,49.6,15.2,71.4,0.7C485,1615.1,496,1585.3,495.3,1556.3z"/>
		</g>
	</g>
</g>
</svg>
