<?xml version="1.0" encoding="UTF-8" standalone="no"?>
<svg
   xmlns:dc="http://purl.org/dc/elements/1.1/"
   xmlns:cc="http://creativecommons.org/ns#"
   xmlns:rdf="http://www.w3.org/1999/02/22-rdf-syntax-ns#"
   xmlns:svg="http://www.w3.org/2000/svg"
   xmlns="http://www.w3.org/2000/svg"
   xmlns:sodipodi="http://sodipodi.sourceforge.net/DTD/sodipodi-0.dtd"
   xmlns:inkscape="http://www.inkscape.org/namespaces/inkscape"
   inkscape:version="1.0 (4035a4fb49, 2020-05-01)"
   sodipodi:docname="software engineer2.svg"
   xml:space="preserve"
   viewBox="0 0 3000 3000"
   height="3000"
   width="3000"
   y="0px"
   x="0px"
   id="Layer_1"
   version="1.1"><metadata
   id="metadata822"><rdf:RDF><cc:Work
       rdf:about=""><dc:format>image/svg+xml</dc:format><dc:type
         rdf:resource="http://purl.org/dc/dcmitype/StillImage" /><dc:title></dc:title></cc:Work></rdf:RDF></metadata><defs
   id="defs820" /><sodipodi:namedview
   inkscape:current-layer="Layer_1"
   inkscape:window-maximized="1"
   inkscape:window-y="-8"
   inkscape:window-x="-8"
   inkscape:cy="1918.3673"
   inkscape:cx="1500"
   inkscape:zoom="0.392"
   showgrid="false"
   id="namedview818"
   inkscape:window-height="1377"
   inkscape:window-width="2560"
   inkscape:pageshadow="2"
   inkscape:pageopacity="0"
   guidetolerance="10"
   gridtolerance="10"
   objecttolerance="10"
   borderopacity="1"
   bordercolor="#666666"
   pagecolor="#ffffff" />
<style
   id="style417"
   type="text/css">
	.st0{fill:#9EE2D5;}
	.st1{fill:#B3E8DE;}
	.st2{fill:#80BCB0;}
	.st3{fill:#FFFFE7;}
	.st4{fill:#EDECD6;}
	.st5{fill:#D59E4C;}
	.st6{fill:#CABFA3;}
	.st7{fill:#968E7C;}
	.st8{fill:#FFCE7F;}
	.st9{fill:#DB7A49;}
	.st10{fill:#A04935;}
	.st11{fill:#AF5B41;}
	.st12{fill:#FD965B;}
	.st13{fill:#2B6668;}
	.st14{fill:#335352;}
	.st15{fill:#8D978F;}
	.st16{fill:#7E8780;}
	.st17{fill:#914C3A;}
	.st18{fill:#89968C;}
	.st19{fill:#97A098;}
	.st20{fill:#717F74;}
	.st21{fill:#B6BAB6;}
	.st22{fill:#9BA59D;}
	.st23{fill:#A3AFA5;}
	.st24{fill:#8F9991;}
	.st25{fill:#A07457;}
	.st26{fill:#B78B68;}
	.st27{fill:#7D966C;}
	.st28{fill:#667C55;}
	.st29{fill:#CEF4EC;}
	.st30{fill:#609389;}
	.st31{fill:#AAAFAB;}
	.st32{fill:#3F8989;}
	.st33{fill:#DCF9F2;}
</style>
<g
   transform="translate(2.5510204,502.55102)"
   id="g815">
	<rect
   y="-510.20407"
   id="rect419"
   height="3063.7754"
   width="3015.3062"
   class="st0"
   x="-3.4510205" />
	<g
   id="g445">
		<g
   id="g433">
			<polygon
   id="polygon421"
   points="2521.6,1056.7 2573.9,982.1 476.6,982.1 424.3,1056.7 "
   class="st1" />
			<polygon
   id="polygon423"
   points="2521.6,1172.6 2573.9,1098 476.6,1098 424.3,1172.6 "
   class="st1" />
			<polygon
   id="polygon425"
   points="2521.6,1288.5 2573.9,1213.9 476.6,1213.9 424.3,1288.5 "
   class="st1" />
			<polygon
   id="polygon427"
   points="2521.6,1411 2573.9,1336.4 476.6,1336.4 424.3,1411 "
   class="st1" />
			<rect
   id="rect429"
   height="1220.4"
   width="15.3"
   class="st1"
   y="378.29999"
   x="2428.2" />
			<ellipse
   id="ellipse431"
   ry="58.299999"
   rx="21.6"
   cy="1634.3"
   cx="2435.8"
   class="st1" />
		</g>
		<g
   id="g443">
			<polygon
   id="polygon435"
   points="2521.6,452.9 2573.9,378.3 476.6,378.3 424.3,452.9 "
   class="st1" />
			<polygon
   id="polygon437"
   points="2521.6,568.8 2573.9,494.2 476.6,494.2 424.3,568.8 "
   class="st1" />
			<polygon
   id="polygon439"
   points="2521.6,684.7 2573.9,610.1 476.6,610.1 424.3,684.7 "
   class="st1" />
			<polygon
   id="polygon441"
   points="2521.6,807.2 2573.9,732.6 476.6,732.6 424.3,807.2 "
   class="st1" />
		</g>
	</g>
	<g
   id="g473">
		<g
   id="g449">
			<path
   id="path447"
   d="m 1313.7,915.9 -35.3,-3.1 c -0.1,-0.4 -0.2,-0.8 -0.3,-1.1 l 29,-20.4 c 2.2,-1.5 2.8,-4.4 1.5,-6.7 l -7.2,-12.6 -7.2,-12.6 c -1.3,-2.3 -4.1,-3.2 -6.5,-2.1 l -32.2,15 c -0.3,-0.3 -0.6,-0.6 -0.8,-0.8 l 15,-32.2 c 1.1,-2.4 0.2,-5.2 -2.1,-6.5 l -12.6,-7.2 -12.6,-7.2 c -2.3,-1.3 -5.2,-0.7 -6.7,1.5 l -20.4,29 c -0.4,-0.1 -0.8,-0.2 -1.1,-0.3 l -3.1,-35.3 c -0.2,-2.6 -2.4,-4.6 -5,-4.6 h -14.5 -14.6 c -2.6,0 -4.8,2 -5,4.6 l -3.1,35.3 c -0.4,0.1 -0.8,0.2 -1.1,0.3 l -20.4,-29 c -1.5,-2.2 -4.4,-2.8 -6.7,-1.5 l -12.6,7.2 -12.6,7.2 c -2.3,1.3 -3.2,4.1 -2.1,6.5 l 15,32.2 c -0.3,0.3 -0.6,0.6 -0.8,0.8 l -32.2,-15 c -2.4,-1.1 -5.2,-0.2 -6.5,2.1 l -7.2,12.6 -7.2,12.6 c -1.3,2.3 -0.7,5.2 1.5,6.7 l 29,20.4 c -0.1,0.4 -0.2,0.8 -0.3,1.1 l -35.3,3.1 c -2.6,0.2 -4.6,2.4 -4.6,5 v 14.5 14.5 c 0,2.6 2,4.8 4.6,5 l 35.3,3.1 c 0.1,0.4 0.2,0.8 0.3,1.1 l -29,20.4 c -2.1,1.5 -2.8,4.4 -1.5,6.7 l 7.2,12.6 7.2,12.6 c 1.3,2.3 4.1,3.2 6.5,2.1 l 32.2,-15 c 0.3,0.3 0.6,0.6 0.8,0.8 l -15,32.2 c -1.1,2.4 -0.2,5.2 2.1,6.5 l 12.6,7.2 12.6,7.2 c 2.3,1.3 5.2,0.7 6.7,-1.5 l 20.4,-29 c 0.4,0.1 0.8,0.2 1.1,0.3 l 3.1,35.3 c 0.2,2.6 2.4,4.6 5,4.6 h 14.5 14.5 c 2.6,0 4.8,-2 5,-4.6 l 3.1,-35.3 c 0.4,-0.1 0.8,-0.2 1.1,-0.3 l 20.4,29 c 1.5,2.2 4.4,2.8 6.7,1.5 l 12.6,-7.2 12.6,-7.2 c 2.3,-1.3 3.2,-4.1 2.1,-6.5 l -15,-32.2 c 0.3,-0.3 0.6,-0.6 0.8,-0.8 l 32.2,15 c 2.4,1.1 5.2,0.2 6.5,-2.1 l 7.2,-12.6 7.2,-12.6 c 1.3,-2.3 0.7,-5.2 -1.5,-6.7 l -29,-20.4 c 0.1,-0.4 0.2,-0.8 0.3,-1.1 l 35.3,-3.1 c 2.6,-0.2 4.6,-2.4 4.6,-5 v -14.5 -14.5 c 0.1,-2.6 -1.9,-4.8 -4.5,-5 z m -122.2,86.6 c -37,0 -67,-30 -67,-67 0,-37 30,-67 67,-67 37,0 67,30 67,67 0,37 -29.9,67 -67,67 z"
   class="st2" />
		</g>
		<g
   id="g455">
			<path
   id="path451"
   d="m 1568.3,574.6 -53.4,-4.7 c -0.2,-0.6 -0.3,-1.2 -0.5,-1.7 l 43.9,-30.8 c 3.2,-2.3 4.2,-6.7 2.2,-10.1 l -10.9,-19 -10.9,-19 c -2,-3.4 -6.3,-4.8 -9.9,-3.1 l -48.6,22.6 c -0.4,-0.4 -0.8,-0.8 -1.3,-1.3 l 22.6,-48.6 c 1.7,-3.6 0.3,-7.9 -3.1,-9.9 l -19,-10.9 -19,-10.9 c -3.4,-2 -7.8,-1 -10.1,2.2 l -30.8,43.9 c -0.6,-0.2 -1.1,-0.3 -1.7,-0.5 l -4.7,-53.4 c -0.3,-4 -3.7,-7 -7.6,-7 h -21.9 -21.9 c -4,0 -7.3,3 -7.6,7 l -4.7,53.4 c -0.6,0.2 -1.2,0.3 -1.7,0.5 l -30.8,-43.9 c -2.3,-3.2 -6.7,-4.2 -10.1,-2.2 l -19,10.9 -19,10.9 c -3.4,2 -4.8,6.3 -3.1,9.9 l 22.6,48.6 c -0.4,0.4 -0.8,0.8 -1.3,1.3 l -48.6,-22.6 c -3.6,-1.7 -7.9,-0.3 -9.9,3.1 l -10.9,19 -10.9,19 c -2,3.4 -1,7.8 2.2,10.1 l 43.9,30.8 c -0.2,0.6 -0.3,1.1 -0.5,1.7 l -53.4,4.7 c -4,0.3 -7,3.7 -7,7.6 v 21.9 21.9 c 0,4 3,7.3 7,7.6 l 53.4,4.7 c 0.2,0.6 0.3,1.2 0.5,1.7 l -43.9,30.8 c -3.2,2.3 -4.2,6.7 -2.2,10.1 l 10.9,19 10.9,19 c 2,3.4 6.3,4.8 9.9,3.1 l 48.6,-22.6 c 0.4,0.4 0.8,0.8 1.3,1.3 l -22.6,48.6 c -1.7,3.6 -0.3,7.9 3.1,9.9 l 19,10.9 19,10.9 c 3.4,2 7.8,1 10.1,-2.2 l 30.8,-43.9 c 0.6,0.2 1.1,0.3 1.7,0.5 l 4.7,53.4 c 0.3,4 3.7,7 7.6,7 h 21.9 21.9 c 4,0 7.3,-3 7.6,-7 l 4.7,-53.4 c 0.6,-0.2 1.2,-0.3 1.7,-0.5 l 30.8,43.9 c 2.3,3.2 6.7,4.2 10.1,2.2 l 19,-10.9 19,-10.9 c 3.4,-2 4.8,-6.3 3.1,-9.9 l -22.6,-48.6 c 0.4,-0.4 0.8,-0.8 1.3,-1.3 l 48.6,22.6 c 3.6,1.7 7.9,0.3 9.9,-3.1 l 10.9,-19 10.9,-19 c 2,-3.4 1,-7.8 -2.2,-10.1 L 1514.4,640 c 0.2,-0.6 0.3,-1.1 0.5,-1.7 l 53.4,-4.7 c 4,-0.3 7,-3.7 7,-7.6 v -21.9 -21.9 c 0,-4 -3,-7.3 -7,-7.6 z m -184.5,130.8 c -55.9,0 -101.3,-45.3 -101.3,-101.3 0,-56 45.3,-101.3 101.3,-101.3 55.9,0 101.3,45.3 101.3,101.3 0,56 -45.3,101.3 -101.3,101.3 z"
   class="st2" />
			<circle
   id="circle453"
   r="77.099998"
   cy="604.09998"
   cx="1383.8"
   class="st2" />
		</g>
		<g
   id="g461">
			<path
   id="path457"
   d="m 1196.3,358.2 -41.7,-4.1 c -2.3,-10.3 -6.3,-19.9 -11.8,-28.5 l 26.6,-32.4 c 1,-1.2 0.9,-3 -0.2,-4.1 l -8.7,-8.7 -8.7,-8.7 c -1.1,-1.1 -2.9,-1.2 -4.1,-0.2 l -32.4,26.6 c -8.6,-5.5 -18.2,-9.5 -28.5,-11.8 l -4.1,-41.7 c -0.2,-1.6 -1.5,-2.8 -3,-2.8 h -12.3 -12.3 c -1.6,0 -2.9,1.2 -3,2.8 l -4.1,41.7 c -10.3,2.3 -19.9,6.3 -28.5,11.8 l -32.4,-26.6 c -1.2,-1 -3,-0.9 -4.1,0.2 l -8.7,8.7 -8.7,8.7 c -1.1,1.1 -1.2,2.9 -0.2,4.1 l 26.6,32.4 c -5.5,8.6 -9.5,18.2 -11.8,28.5 l -41.7,4.1 c -1.6,0.2 -2.8,1.5 -2.8,3 v 12.3 12.3 c 0,1.6 1.2,2.9 2.8,3 l 41.7,4.1 c 2.3,10.3 6.3,19.9 11.8,28.5 l -26.6,32.4 c -1,1.2 -0.9,3 0.2,4.1 l 8.7,8.7 8.7,8.7 c 1.1,1.1 2.9,1.2 4.1,0.2 l 32.4,-26.6 c 8.6,5.5 18.2,9.5 28.5,11.8 l 4.1,41.7 c 0.2,1.6 1.5,2.8 3,2.8 h 12.3 12.3 c 1.6,0 2.9,-1.2 3,-2.8 l 4.1,-41.7 c 10.3,-2.3 19.9,-6.3 28.5,-11.8 l 32.4,26.6 c 1.2,1 3,0.9 4.1,-0.2 l 8.7,-8.7 8.7,-8.7 c 1.1,-1.1 1.2,-2.9 0.2,-4.1 l -26.6,-32.4 c 5.5,-8.6 9.5,-18.2 11.8,-28.5 l 41.7,-4.1 c 1.6,-0.2 2.8,-1.5 2.8,-3 v -12.3 -12.3 c 0,-1.5 -1.2,-2.8 -2.8,-3 z m -128.8,84.5 c -38.2,0 -69.2,-31 -69.2,-69.2 0,-38.2 31,-69.2 69.2,-69.2 38.2,0 69.2,31 69.2,69.2 0,38.2 -31,69.2 -69.2,69.2 z"
   class="st2" />
			<path
   id="path459"
   d="m 1067.5,316.2 c -31.7,0 -57.3,25.7 -57.3,57.3 0,31.7 25.7,57.3 57.3,57.3 31.7,0 57.3,-25.7 57.3,-57.3 0,-31.6 -25.6,-57.3 -57.3,-57.3 z m 0,105.6 c -26.7,0 -48.3,-21.6 -48.3,-48.3 0,-26.7 21.6,-48.3 48.3,-48.3 26.7,0 48.3,21.6 48.3,48.3 0,26.7 -21.6,48.3 -48.3,48.3 z"
   class="st2" />
		</g>
		<g
   id="g467">
			<path
   id="path463"
   d="m 1910.1,664.9 -44.2,-4.3 c -2.4,-10.9 -6.7,-21.1 -12.5,-30.2 l 28.2,-34.3 c 1.1,-1.3 1,-3.2 -0.2,-4.3 l -9.2,-9.2 -9.2,-9.2 c -1.2,-1.2 -3.1,-1.3 -4.3,-0.2 l -34.3,28.2 c -9.1,-5.8 -19.3,-10.1 -30.2,-12.5 l -4.3,-44.2 c -0.2,-1.7 -1.6,-2.9 -3.2,-2.9 h -13 -13 c -1.7,0 -3.1,1.3 -3.2,2.9 l -4.3,44.2 c -10.9,2.4 -21.1,6.7 -30.2,12.5 l -34.3,-28.2 c -1.3,-1.1 -3.2,-1 -4.3,0.2 l -9.2,9.2 -9.2,9.2 c -1.2,1.2 -1.3,3.1 -0.2,4.3 l 28.2,34.3 c -5.8,9.1 -10.1,19.3 -12.5,30.2 l -44.2,4.3 c -1.7,0.2 -2.9,1.6 -2.9,3.2 v 13 13 c 0,1.7 1.3,3.1 2.9,3.2 l 44.2,4.3 c 2.4,10.9 6.7,21.1 12.5,30.2 l -28.2,34.3 c -1.1,1.3 -1,3.2 0.2,4.3 l 9.2,9.2 9.2,9.2 c 1.2,1.2 3.1,1.3 4.3,0.2 l 34.3,-28.2 c 9.1,5.8 19.3,10.1 30.2,12.5 l 4.3,44.2 c 0.2,1.7 1.6,2.9 3.2,2.9 h 13 13 c 1.7,0 3.1,-1.3 3.2,-2.9 l 4.3,-44.2 c 10.9,-2.4 21.1,-6.7 30.2,-12.5 l 34.3,28.2 c 1.3,1.1 3.2,1 4.3,-0.2 l 9.2,-9.2 9.2,-9.2 c 1.2,-1.2 1.3,-3.1 0.2,-4.3 l -28.2,-34.3 c 5.8,-9.1 10.1,-19.3 12.5,-30.2 l 44.2,-4.3 c 1.7,-0.2 2.9,-1.6 2.9,-3.2 v -13 -13 c 0,-1.6 -1.2,-3 -2.9,-3.2 z m -136.3,89.5 c -40.5,0 -73.3,-32.8 -73.3,-73.3 0,-40.5 32.8,-73.3 73.3,-73.3 40.5,0 73.3,32.8 73.3,73.3 -0.1,40.5 -32.9,73.3 -73.3,73.3 z"
   class="st2" />
			<path
   id="path465"
   d="m 1773.8,620.5 c -33.5,0 -60.7,27.2 -60.7,60.7 0,33.5 27.2,60.7 60.7,60.7 33.5,0 60.7,-27.2 60.7,-60.7 -0.1,-33.6 -27.2,-60.7 -60.7,-60.7 z m 0,111.7 c -28.2,0 -51.1,-22.9 -51.1,-51.1 0,-28.2 22.9,-51.1 51.1,-51.1 28.2,0 51.1,22.9 51.1,51.1 0,28.3 -22.9,51.1 -51.1,51.1 z"
   class="st2" />
		</g>
		<path
   id="path469"
   d="m 1713.5,423.8 -19.2,-1.9 c -1.1,-4.7 -2.9,-9.2 -5.4,-13.1 l 12.3,-14.9 c 0.5,-0.6 0.4,-1.4 -0.1,-1.9 l -4,-4 -4,-4 c -0.5,-0.5 -1.3,-0.6 -1.9,-0.1 l -14.9,12.3 c -4,-2.5 -8.4,-4.4 -13.1,-5.4 l -1.9,-19.2 c -0.1,-0.7 -0.7,-1.3 -1.4,-1.3 h -5.7 -5.7 c -0.7,0 -1.3,0.5 -1.4,1.3 l -1.9,19.2 c -4.7,1.1 -9.2,2.9 -13.1,5.4 l -14.9,-12.3 c -0.6,-0.5 -1.4,-0.4 -1.9,0.1 l -4,4 -4,4 c -0.5,0.5 -0.6,1.3 -0.1,1.9 l 12.3,14.9 c -2.5,4 -4.4,8.4 -5.4,13.1 l -19.2,1.9 c -0.7,0.1 -1.3,0.7 -1.3,1.4 v 5.7 5.7 c 0,0.7 0.5,1.3 1.3,1.4 l 19.2,1.9 c 1.1,4.7 2.9,9.2 5.4,13.1 l -12.3,14.9 c -0.5,0.6 -0.4,1.4 0.1,1.9 l 4,4 4,4 c 0.5,0.5 1.3,0.6 1.9,0.1 l 14.9,-12.3 c 4,2.5 8.4,4.4 13.1,5.4 l 1.9,19.2 c 0.1,0.7 0.7,1.3 1.4,1.3 h 5.7 5.7 c 0.7,0 1.3,-0.5 1.4,-1.3 l 1.9,-19.2 c 4.7,-1.1 9.2,-2.9 13.1,-5.4 l 14.9,12.3 c 0.6,0.5 1.4,0.4 1.9,-0.1 l 4,-4 4,-4 c 0.5,-0.5 0.6,-1.3 0.1,-1.9 L 1688.9,453 c 2.5,-4 4.4,-8.4 5.4,-13.1 l 19.2,-1.9 c 0.7,-0.1 1.3,-0.7 1.3,-1.4 v -5.7 -5.7 c 0,-0.7 -0.6,-1.3 -1.3,-1.4 z m -59.4,24.6 c -9.7,0 -17.6,-7.9 -17.6,-17.6 0,-9.7 7.9,-17.6 17.6,-17.6 9.7,0 17.6,7.9 17.6,17.6 0,9.7 -7.9,17.6 -17.6,17.6 z"
   class="st2" />
		<path
   id="path471"
   d="m 908.1,512.1 -19.2,-1.9 c -1.1,-4.7 -2.9,-9.2 -5.4,-13.1 l 12.3,-14.9 c 0.5,-0.6 0.4,-1.4 -0.1,-1.9 l -4,-4 -4,-4 c -0.5,-0.5 -1.3,-0.6 -1.9,-0.1 l -14.9,12.3 c -4,-2.5 -8.4,-4.4 -13.1,-5.4 l -1.9,-19.2 c -0.1,-0.7 -0.7,-1.3 -1.4,-1.3 h -5.7 -5.7 c -0.7,0 -1.3,0.5 -1.4,1.3 l -1.9,19.2 c -4.7,1.1 -9.2,2.9 -13.1,5.4 l -14.9,-12.3 c -0.6,-0.5 -1.4,-0.4 -1.9,0.1 l -4,4 -4,4 c -0.5,0.5 -0.6,1.3 -0.1,1.9 L 814,497 c -2.5,4 -4.4,8.4 -5.4,13.1 l -19.2,1.9 c -0.7,0.1 -1.3,0.7 -1.3,1.4 v 5.7 5.7 c 0,0.7 0.5,1.3 1.3,1.4 l 19.2,1.9 c 1.1,4.7 2.9,9.2 5.4,13.1 l -12.3,14.9 c -0.5,0.6 -0.4,1.4 0.1,1.9 l 4,4 4,4 c 0.5,0.5 1.3,0.6 1.9,0.1 l 14.9,-12.3 c 4,2.5 8.4,4.4 13.1,5.4 l 1.9,19.2 c 0.1,0.7 0.7,1.3 1.4,1.3 h 5.7 5.7 c 0.7,0 1.3,-0.5 1.4,-1.3 l 1.9,-19.2 c 4.7,-1.1 9.2,-2.9 13.1,-5.4 l 14.9,12.3 c 0.6,0.5 1.4,0.4 1.9,-0.1 l 4,-4 4,-4 c 0.5,-0.5 0.6,-1.3 0.1,-1.9 l -12.3,-14.9 c 2.5,-4 4.4,-8.4 5.4,-13.1 l 19.2,-1.9 c 0.7,-0.1 1.3,-0.7 1.3,-1.4 v -5.7 -5.7 c 0.1,-0.7 -0.4,-1.3 -1.2,-1.3 z m -59.4,24.6 c -9.7,0 -17.6,-7.9 -17.6,-17.6 0,-9.7 7.9,-17.6 17.6,-17.6 9.7,0 17.6,7.9 17.6,17.6 0,9.7 -7.9,17.6 -17.6,17.6 z"
   class="st2" />
	</g>
	<g
   id="g739">
		<g
   id="g627">
			<g
   id="g485">
				<path
   id="path475"
   d="m 794.8,1625 c 0,39.8 32.3,72.1 72.1,72.1 h 36.5 c 39.8,0 72.1,-32.3 72.1,-72.1 v -60.8 H 794.8 Z"
   class="st3" />
				<path
   id="path477"
   d="m 956.8,1613.2 c 0,39.8 -32.3,72.1 -72.1,72.1 h -36.5 c -10.2,0 -19.9,-2.1 -28.7,-6 12.7,11.1 29.3,17.8 47.4,17.8 h 36.5 c 39.8,0 72.1,-32.3 72.1,-72.1 v -60.8 h -18.7 z"
   class="st4" />
				<path
   id="path479"
   d="m 718.8,1711.5 h 332.7 c 10.6,0 19.2,-8.6 19.2,-19.2 H 699.5 c 0,10.5 8.7,19.2 19.3,19.2 z"
   class="st3" />
				<path
   id="path481"
   d="M 1051.5,1701.8 H 718.8 c -7.1,0 -13.3,-3.9 -16.6,-9.6 h -2.6 c 0,10.6 8.6,19.2 19.2,19.2 h 332.7 c 10.6,0 19.2,-8.6 19.2,-19.2 h -2.6 c -3.3,5.8 -9.5,9.6 -16.6,9.6 z"
   class="st4" />
				<path
   id="path483"
   d="m 776.2,1586.9 h 18.6 c 6.3,0 11.4,-5.1 11.4,-11.4 0,-6.3 -5.1,-11.4 -11.4,-11.4 h -18.6 c -13.4,0 -24.4,10.9 -24.4,24.4 v 13.2 c 0,22.3 18.2,40.5 40.5,40.5 h 2.5 c 6.3,0 11.4,-5.1 11.4,-11.4 0,-6.3 -5.1,-11.4 -11.4,-11.4 h -2.5 c -9.8,0 -17.8,-8 -17.8,-17.8 v -13.2 c 0,-0.7 0.8,-1.5 1.7,-1.5 z"
   class="st3" />
			</g>
			<g
   id="g497">
				<g
   id="g493">
					<path
   id="path487"
   d="M 2407.4,1711.5 H 521.5 c -21.2,0 -38.4,19.5 -38.4,43.5 0,24 17.2,43.5 38.4,43.5 h 1885.9 c 21.2,0 38.4,-19.5 38.4,-43.5 0.1,-24.1 -17.1,-43.5 -38.4,-43.5 z"
   class="st5" />
					<rect
   id="rect489"
   height="201.8"
   width="1838.9"
   class="st6"
   y="1798.4"
   x="545" />
					<rect
   id="rect491"
   height="29"
   width="1838.9"
   class="st7"
   y="1798.4"
   x="545" />
				</g>
				<path
   id="path495"
   d="M 2407.4,1711.5 H 521.5 c -21.2,0 -38.4,19.5 -38.4,43.5 0,6.5 1.3,12.6 3.5,18.2 0,-0.1 0,-0.2 0,-0.3 v 0 c 0,-24 17.2,-43.5 38.4,-43.5 h 1885.9 c 15.5,0 28.8,10.4 34.9,25.3 -0.1,-23.9 -17.2,-43.2 -38.4,-43.2 z"
   class="st8" />
			</g>
			<g
   id="g553">
				<rect
   id="rect499"
   height="125.1"
   width="91.900002"
   class="st9"
   y="1162.6"
   x="1414.3" />
				<path
   id="path501"
   d="m 1636.5,1058.6 c 0,0 -9.9,-19.3 -13.9,7.5 -4,26.8 30.4,43.2 30.4,43.2 -23.4,-26.3 -16.5,-50.7 -16.5,-50.7 z"
   class="st10" />
				<path
   id="path503"
   d="m 1607.8,1096.4 v 0 c -14,19.9 -29.3,37.8 -45.1,53.3 v 0 c 0,0 31.9,19.4 -10.6,159.4 -42.5,140 97.9,235.6 97.9,235.6 -43,-119.2 -22.2,-123.3 40.2,-248.1 62.4,-124.8 -82.4,-200.2 -82.4,-200.2 z"
   class="st11" />
				<path
   id="path505"
   d="m 1607.8,1096.4 v 0 c -14,19.9 -29.3,37.8 -45.1,53.3 v 0 c 0,0 31.9,19.4 -10.6,159.4 -6.2,20.6 -8.5,40.2 -7.9,58.7 v 0 c 16.2,-99.7 41.1,-109.1 88.2,-159.1 26,-27.6 19,-63.8 7.4,-90.6 -17.6,-14.2 -32,-21.7 -32,-21.7 z"
   class="st10" />
				<path
   id="path507"
   d="m 1462.8,789 c -97.4,0 -186.7,63.5 -186.7,177.7 0,60.2 29.1,119.7 68.6,163.9 61.5,68.8 174.7,68.8 236.2,0 39.5,-44.2 68.6,-103.8 68.6,-163.9 C 1649.6,852.5 1560.2,789 1462.8,789 Z"
   class="st12" />
				<circle
   id="circle509"
   r="46.599998"
   cy="1012"
   cx="1642.6"
   class="st12" />
				<circle
   id="circle511"
   r="46.599998"
   cy="1012"
   cx="1283.1"
   class="st12" />
				<path
   id="path513"
   d="m 1603.8,800.1 c -0.1,-0.1 -0.2,-0.2 -0.3,-0.3 -31.3,-33.2 -71.5,-54.5 -115.1,-61.3 -0.3,-0.1 -0.7,-0.1 -1,-0.1 -3,-0.5 -6.1,-0.9 -9.2,-1.2 -1.2,-0.1 -2.4,-0.2 -3.7,-0.3 -2.2,-0.2 -4.4,-0.4 -6.6,-0.5 -3.4,-0.2 -6.9,-0.3 -10.4,-0.3 -2.9,0 -5.8,0.1 -8.6,0.2 -1,0 -2.1,0.1 -3.1,0.1 -2.2,0.1 -4.3,0.3 -6.5,0.5 -1.8,0.2 -3.7,0.4 -5.5,0.6 0,0 -0.1,0 -0.1,0 0,0 0,0 0,0 -101.1,12.2 -185.4,101.6 -187.9,237 -9.5,94.7 47.1,207.7 47.1,207.7 -33.7,-82.4 -3.8,-189.9 -3.8,-189.9 8.8,-16.9 24.2,-29.5 42.6,-34.7 30.1,-8.6 61.7,-20.1 93.6,-34.6 33.4,-15.2 64.2,-32.2 91.5,-50.1 50.9,58.1 108.2,95.5 152.4,101.9 -1.1,-73.4 -26.4,-133.2 -65.4,-174.7 0,0 0,0 0,0 z"
   class="st11" />
				<path
   id="path515"
   d="m 1696.3,1222.3 -17.4,-0.1 c 0,0 -7.5,20.6 15.1,60.4 22.6,39.8 53.2,28.3 53.2,28.3 -38,-9.1 -50.9,-88.6 -50.9,-88.6 z"
   class="st11" />
				<g
   id="g523">
					<path
   id="path517"
   d="m 1642.4,952.2 c -10.9,-2.4 -45.7,-9.1 -83.9,-4.3 -46.2,5.8 -77.6,13.7 -95.7,11.9 -18.1,1.8 -49.5,-6.1 -95.7,-11.9 -38.2,-4.8 -73,1.9 -83.9,4.3 -2.1,0.5 -3.5,2.3 -3.5,4.4 v 15 c 0,1.8 1,3.4 2.7,4.1 13.6,5.9 14.8,38.7 18.4,62.4 3.8,25.2 35.1,30 67.6,30.1 21.2,0.1 37.5,-3.2 49.3,-8.7 24.1,-11.1 28.2,-69.2 30.5,-74.4 2.3,-5.2 14.6,-4.1 14.6,-4.1 0,0 12.3,-1.2 14.6,4.1 2.3,5.3 6.4,63.3 30.5,74.4 11.8,5.4 28.2,8.8 49.3,8.7 32.5,-0.2 63.8,-5 67.6,-30.1 3.6,-23.7 4.8,-56.5 18.4,-62.4 1.6,-0.7 2.7,-2.4 2.7,-4.1 v -15 c 0.1,-2.1 -1.4,-3.9 -3.5,-4.4 z"
   class="st13" />
					<path
   id="path519"
   d="m 1407.5,963.2 c -26.8,-4.5 -50.6,-6.3 -57.1,-6.7 -0.8,-0.1 -1.6,-0.1 -2.4,-0.2 -5.6,-0.4 -41.3,-1.7 -40.5,37.7 0.9,42.7 4.1,59.1 32.2,63.2 28.1,4.1 48.3,3.2 62.9,-3.8 14.6,-7 22.2,-12.9 29.5,-43.3 7.3,-30.4 4.2,-42 -24.6,-46.9 z"
   class="st12" />
					<path
   id="path521"
   d="m 1577.7,956.4 c -0.8,0.1 -1.6,0.1 -2.4,0.2 -6.5,0.4 -30.3,2.1 -57.1,6.7 -28.7,4.9 -31.9,16.5 -24.6,46.9 7.3,30.4 14.9,36.3 29.5,43.3 14.6,7 34.8,7.9 62.9,3.8 28.1,-4.1 31.3,-20.5 32.2,-63.2 0.8,-39.5 -34.9,-38.2 -40.5,-37.7 z"
   class="st12" />
				</g>
				<path
   id="path525"
   d="m 1502,1224.1 c -18.4,37.4 -72.9,34.3 -86.6,-5.1 -0.4,-1.3 -0.7,-2.1 -0.7,-2.4 l -169.8,52 V 1696 h 215.3 220.5 v -425.8 l -175,-53.6 z"
   class="st14" />
				<path
   id="path527"
   d="m 1286.1,1547.8 h -186.6 c -1.3,0 -3.8,0 -5.3,-3.4 -0.9,-2.1 -0.7,-3.6 -0.2,-4.6 l 199.6,-174.1 c 23.3,-20.3 25.7,-55.7 5.4,-79 -20.3,-23.3 -55.7,-25.7 -79,-5.4 l -203.6,177.5 c -1.8,1.6 -3.5,3.3 -5.1,5 -31.2,35.2 -38.6,83.6 -19.3,126.5 19.3,42.9 60.5,69.5 107.5,69.5 h 186.6 c 30.9,0 56,-25.1 56,-56 0,-31 -25,-56 -56,-56 z"
   class="st12" />
				<path
   id="path529"
   d="m 1220,1281.2 -149.7,130.6 c 12.2,28.8 35.8,62.3 81.5,77.5 l 141.8,-123.6 c 23.3,-20.3 25.7,-55.7 5.4,-79 -20.3,-23.4 -55.7,-25.8 -79,-5.5 z"
   class="st14" />
				<path
   id="path531"
   d="m 1909.2,1458.7 -203.6,-177.5 c -23.3,-20.3 -58.7,-17.9 -79,5.4 -20.3,23.3 -17.9,58.7 5.4,79 l 199.6,174.1 c 0.5,1.1 0.7,2.6 -0.2,4.6 -1.5,3.4 -4,3.4 -5.3,3.4 h -186.6 c -30.9,0 -56,25.1 -56,56 0,30.9 25.1,56 56,56 h 186.6 c 47,0 88.2,-26.6 107.5,-69.5 19.3,-42.9 11.9,-91.3 -19.3,-126.5 -1.6,-1.7 -3.3,-3.4 -5.1,-5 z"
   class="st12" />
				<path
   id="path533"
   d="m 1626.7,1286.6 c -20.3,23.3 -17.9,58.7 5.4,79 l 141.8,123.6 c 45.7,-15.2 69.4,-48.7 81.5,-77.5 l -149.7,-130.6 c -23.3,-20.2 -58.7,-17.8 -79,5.5 z"
   class="st14" />
				<g
   id="g543">
					<path
   id="path535"
   d="m 1795.1,1270.5 h -661.3 c -12.8,0 -23.3,10.4 -23.3,23.3 v 417.7 h 707.8 v -417.7 c 0.1,-12.9 -10.3,-23.3 -23.2,-23.3 z"
   class="st3" />
					<polygon
   id="polygon537"
   points="1110.6,1711.5 1818.4,1711.5 1818.4,1362.5 1110.6,1607.2 "
   class="st4" />
					<circle
   id="circle539"
   r="34.599998"
   cy="1491"
   cx="1464.5"
   class="st15" />
					<path
   id="path541"
   d="m 1493.6,1475.9 c 0,19.1 -15.5,34.6 -34.6,34.6 -12,0 -22.6,-6.1 -28.8,-15.4 2,17.2 16.7,30.5 34.4,30.5 19.1,0 34.6,-15.5 34.6,-34.6 0,-7.1 -2.1,-13.7 -5.8,-19.2 0.1,1.3 0.2,2.7 0.2,4.1 z"
   class="st16" />
				</g>
				<path
   id="path545"
   d="m 1371.5,1021.5 c -11.5,0 -21.2,-7.7 -24.2,-18.3 -0.6,2.2 -1,4.5 -1,6.9 0,13.9 11.3,25.2 25.2,25.2 13.9,0 25.2,-11.3 25.2,-25.2 0,-2.4 -0.3,-4.7 -1,-6.9 -3,10.5 -12.7,18.3 -24.2,18.3 z"
   class="st17" />
				<path
   id="path547"
   d="m 1554.2,1021.5 c -11.5,0 -21.2,-7.7 -24.2,-18.3 -0.6,2.2 -1,4.5 -1,6.9 0,13.9 11.3,25.2 25.2,25.2 13.9,0 25.2,-11.3 25.2,-25.2 0,-2.4 -0.3,-4.7 -1,-6.9 -2.9,10.5 -12.7,18.3 -24.2,18.3 z"
   class="st17" />
				<ellipse
   id="ellipse549"
   ry="22.6"
   rx="15.1"
   cy="1122.1"
   cx="1462.8"
   class="st17" />
				<path
   id="path551"
   d="m 1462.8,1099.5 c -6.6,0 -12.2,6.4 -14.2,15.2 h 28.5 c -2.1,-8.9 -7.7,-15.2 -14.3,-15.2 z"
   class="st3" />
			</g>
			<g
   id="g597">
				<g
   id="g595">
					
						<rect
   id="rect555"
   height="30.4"
   width="509.29999"
   class="st18"
   transform="matrix(0.2887,-0.9574,0.9574,0.2887,162.5155,3121.5977)"
   y="1436.2"
   x="1927.4" />
					
						<rect
   id="rect557"
   height="368.5"
   width="30.4"
   class="st18"
   transform="matrix(0.7643,-0.6449,0.6449,0.7643,-187.8347,1631.9121)"
   y="888.59998"
   x="2123.2" />
					<circle
   id="circle559"
   r="25.6"
   cy="1209.9"
   cx="2252.1001"
   class="st19" />
					<path
   id="path561"
   d="m 2230.1,1239.6 c 4.7,5.1 11.4,8.3 18.8,8.3 4,0 7.8,-1 11.2,-2.6 l 10,-33.2 -29.1,-8.8 z"
   class="st20" />
					<path
   id="path563"
   d="m 1929.6,817.4 c -1.3,-1.6 -3.8,-1.8 -5.4,-0.5 l -1.1,0.9 c -1.6,1.3 -1.8,3.8 -0.5,5.4 l 104.2,125.3 c 1.3,1.6 3.8,1.8 5.4,0.5 l 1.1,-0.9 c 1.6,-1.3 1.8,-3.8 0.5,-5.4 z"
   class="st21" />
					<path
   id="path565"
   d="m 1924.2,825.1 -143,75.2 c -5.8,3.1 -7.4,10.8 -3.2,15.8 l 65.4,78.7 65.4,78.7 c 4.2,5.1 12.1,5 16.1,-0.2 L 2025,946.5 1974.5,885.8 Z"
   class="st22" />
					<g
   id="g571">
						<path
   id="path567"
   d="m 2028.9,919.7 -15.3,12.9 29.1,35 c 1.6,1.9 4.5,2.2 6.4,0.6 1.9,-1.6 2.2,-4.5 0.6,-6.4 l -2.3,-2.8 8.6,-7.1 z"
   class="st20" />
						<polygon
   id="polygon569"
   points="2035.2,974.3 2041.6,966.2 2013.7,932.6 2005.7,939.3 "
   class="st20" />
					</g>
					<polygon
   id="polygon573"
   points="2096.8,1681.5 2096.8,1682.8 2128.2,1682.8 2141.5,1638.8 2109.7,1638.8 "
   class="st20" />
					<g
   id="g577">
						<path
   id="path575"
   d="m 2116.6,1654.1 c -61.4,0 -115.4,22.8 -146.4,57.3 H 2263 c -31,-34.4 -85,-57.3 -146.4,-57.3 z"
   class="st18" />
					</g>
					<g
   id="g581">
						<path
   id="path579"
   d="m 2033.8,1669.1 c 17.8,10.9 48.2,18.1 82.7,18.1 34.5,0 64.9,-7.2 82.7,-18.1 -24.6,-9.6 -52.8,-15 -82.7,-15 -29.9,0 -58.1,5.5 -82.7,15 z"
   class="st23" />
					</g>
					<circle
   id="circle583"
   r="25.6"
   cy="1209.9"
   cx="2252.1001"
   class="st19" />
					<path
   id="path585"
   d="m 1988.7,822.2 c -13.1,-15.8 -36.5,-17.9 -52.3,-4.8 l -4,3.3 98.6,118.6 4,-3.3 c 15.8,-13.1 17.9,-36.5 4.8,-52.3 z"
   class="st18" />
					<path
   id="path587"
   d="m 1936.4,817.4 -4,3.3 23.6,28.4 4,-3.3 c 10.5,-8.8 15,-22.1 12.9,-34.7 -12.1,-4.4 -26,-2.5 -36.5,6.3 z"
   class="st22" />
					<path
   id="path589"
   d="m 1924.2,825.1 -143,75.2 c -5.8,3.1 -7.4,10.8 -3.2,15.8 l 65.4,78.7 65.4,78.7 c 4.2,5.1 12.1,5 16.1,-0.2 L 2025,946.5 1974.5,885.8 Z"
   class="st22" />
					<path
   id="path591"
   d="m 1937.9,827.5 c -1.3,-1.6 -3.8,-1.8 -5.4,-0.5 l -1.1,0.9 c -1.6,1.3 -1.8,3.8 -0.5,5.4 l 104.2,125.3 c 1.3,1.6 3.8,1.8 5.4,0.5 l 1.1,-0.9 c 1.6,-1.3 1.8,-3.8 0.5,-5.4 z"
   class="st21" />
					<path
   id="path593"
   d="m 1776.3,912.8 c 0.4,1.2 1,2.3 1.8,3.3 l 65.4,78.7 65.4,78.7 c 4.2,5.1 12.1,5 16.1,-0.2 l 100,-126.7 -77.9,-93.7 z"
   class="st24" />
				</g>
			</g>
			<g
   id="g625">
				<path
   id="path599"
   d="m 2010.5,1579.7 h -67.2 -64.2 c -5.5,0 -9.6,4.9 -8.6,10.3 l 22,121.4 h 50.8 50.8 l 22.5,-124.4 c 0.6,-3.8 -2.3,-7.3 -6.1,-7.3 z"
   class="st25" />
				<path
   id="path601"
   d="m 1876,1579.7 c -3.9,0 -6.8,3.5 -6.1,7.3 l 20.9,115.6 h 40 39 c 6.8,0 12.7,-4.9 13.9,-11.6 l 20.1,-111.2 h -60.6 -67.2 z"
   class="st26" />
				<path
   id="path603"
   d="m 1943.5,1375.6 c -13.5,10.6 -22.2,27 -22.2,45.5 0,18.5 8.7,34.9 22.2,45.5 13.5,-10.6 22.2,-27 22.2,-45.5 0,-18.5 -8.7,-35 -22.2,-45.5 z"
   class="st27" />
				<path
   id="path605"
   d="m 1943.5,1458 c -12.5,-9.7 -20.8,-24.5 -22,-41.2 -0.1,1.4 -0.2,2.8 -0.2,4.2 0,18.5 8.7,34.9 22.2,45.5 13.5,-10.6 22.2,-27 22.2,-45.5 0,-1.4 -0.1,-2.8 -0.2,-4.2 -1.2,16.7 -9.6,31.5 -22,41.2 z"
   class="st28" />
				<path
   id="path607"
   d="m 1965.7,1470 c -12.5,8.9 -19.5,22.6 -20.2,36.8 13.6,4.1 28.9,2.1 41.4,-6.8 12.5,-8.9 19.5,-22.6 20.2,-36.8 -13.6,-4 -28.9,-2 -41.4,6.8 z"
   class="st27" />
				<path
   id="path609"
   d="m 1987.3,1493.5 c -11.9,10.6 -27.2,14.8 -41.8,13.1 0,0.1 0,0.1 0,0.2 13.6,4.1 28.9,2.1 41.4,-6.8 12.5,-8.9 19.5,-22.6 20.2,-36.8 -0.8,-0.2 -1.6,-0.5 -2.5,-0.7 -2,11.6 -7.8,22.6 -17.3,31 z"
   class="st28" />
				<path
   id="path611"
   d="m 1971.6,1527.5 c -14.2,5.7 -24.2,17.5 -28.1,31.2 12.3,7.1 27.7,8.7 41.9,3 14.2,-5.7 24.2,-17.5 28.1,-31.2 -12.4,-7.1 -27.7,-8.7 -41.9,-3 z"
   class="st27" />
				<path
   id="path613"
   d="m 1987.3,1555.4 c -14,7.5 -29.9,8.2 -43.7,3.1 0,0.1 0,0.1 -0.1,0.2 12.3,7.1 27.7,8.7 41.9,3 14.2,-5.7 24.2,-17.5 28.1,-31.2 -0.7,-0.4 -1.5,-0.8 -2.3,-1.2 -4.6,10.8 -12.8,20.1 -23.9,26.1 z"
   class="st28" />
				<path
   id="path615"
   d="m 1920.8,1470 c -12.5,-8.9 -27.8,-10.8 -41.4,-6.8 0.7,14.2 7.6,28 20.2,36.8 12.5,8.9 27.8,10.8 41.4,6.8 -0.7,-14.2 -7.7,-27.9 -20.2,-36.8 z"
   class="st27" />
				<path
   id="path617"
   d="m 1899.1,1493.5 c -9.5,-8.4 -15.2,-19.4 -17.3,-30.9 -0.8,0.2 -1.7,0.4 -2.5,0.7 0.7,14.2 7.6,28 20.2,36.8 12.5,8.9 27.8,10.8 41.4,6.8 0,-0.1 0,-0.1 0,-0.2 -14.6,1.6 -29.9,-2.6 -41.8,-13.2 z"
   class="st28" />
				<path
   id="path619"
   d="m 1914.9,1527.5 c -14.2,-5.7 -29.6,-4.1 -41.9,3 3.9,13.7 13.9,25.4 28.1,31.2 14.2,5.7 29.6,4.1 41.9,-3 -4,-13.7 -13.9,-25.4 -28.1,-31.2 z"
   class="st27" />
				<path
   id="path621"
   d="m 1899.2,1555.4 c -11.1,-6 -19.3,-15.3 -23.9,-26.1 -0.8,0.4 -1.5,0.8 -2.3,1.2 3.9,13.7 13.9,25.4 28.1,31.2 14.2,5.7 29.6,4.1 41.9,-3 0,-0.1 0,-0.1 -0.1,-0.2 -13.8,5.1 -29.7,4.4 -43.7,-3.1 z"
   class="st28" />
				<rect
   id="rect623"
   height="120.5"
   width="6.6999998"
   class="st28"
   y="1459.2"
   x="1940.2" />
			</g>
		</g>
		<g
   id="g667">
			<path
   id="path629"
   d="m 2368.7,470.6 h -373.2 c -5.7,0 -10.3,4.6 -10.3,10.3 v 242.4 c 0,5.7 4.6,10.3 10.3,10.3 h 373.2 c 5.7,0 10.3,-4.6 10.3,-10.3 V 480.8 c -0.1,-5.6 -4.7,-10.2 -10.3,-10.2 z"
   class="st2" />
			<path
   id="path631"
   d="m 2358.3,514.9 h -352.4 c -4.2,0 -7.6,3.4 -7.6,7.6 v 190.4 c 0,4.2 3.4,7.6 7.6,7.6 h 352.4 c 4.2,0 7.6,-3.4 7.6,-7.6 V 522.5 c -0.1,-4.2 -3.4,-7.6 -7.6,-7.6 z"
   class="st29" />
			<g
   id="g639">
				<circle
   id="circle633"
   r="7.6999998"
   cy="495.39999"
   cx="2282.3999"
   class="st12" />
				<circle
   id="circle635"
   r="7.6999998"
   cy="495.39999"
   cx="2310.7"
   class="st27" />
				<circle
   id="circle637"
   r="7.6999998"
   cy="495.39999"
   cx="2339"
   class="st24" />
			</g>
			<g
   id="g665">
				<path
   id="path641"
   d="m 2157.8,540.8 h -125.5 c -2.4,0 -4.4,2 -4.4,4.4 0,2.4 2,4.4 4.4,4.4 h 125.5 c 2.4,0 4.4,-2 4.4,-4.4 0,-2.4 -2,-4.4 -4.4,-4.4 z"
   class="st24" />
				<path
   id="path643"
   d="m 2332.5,540.8 h -126.9 c -2,0 -3.7,1.6 -3.7,3.7 v 1.4 c 0,2 1.6,3.7 3.7,3.7 h 126.9 c 2,0 3.7,-1.6 3.7,-3.7 v -1.4 c 0,-2 -1.6,-3.7 -3.7,-3.7 z"
   class="st27" />
				<path
   id="path645"
   d="m 2157.8,569.8 h -125.5 c -2.4,0 -4.4,2 -4.4,4.4 0,2.4 2,4.4 4.4,4.4 h 125.5 c 2.4,0 4.4,-2 4.4,-4.4 0,-2.4 -2,-4.4 -4.4,-4.4 z"
   class="st24" />
				<path
   id="path647"
   d="m 2332.5,569.8 h -126.9 c -2,0 -3.7,1.6 -3.7,3.7 v 1.4 c 0,2 1.6,3.7 3.7,3.7 h 126.9 c 2,0 3.7,-1.6 3.7,-3.7 v -1.4 c 0,-2 -1.6,-3.7 -3.7,-3.7 z"
   class="st27" />
				<path
   id="path649"
   d="m 2157.8,598.8 h -125.5 c -2.4,0 -4.4,2 -4.4,4.4 0,2.4 2,4.4 4.4,4.4 h 125.5 c 2.4,0 4.4,-2 4.4,-4.4 0,-2.4 -2,-4.4 -4.4,-4.4 z"
   class="st24" />
				<path
   id="path651"
   d="m 2332.5,598.8 h -126.9 c -2,0 -3.7,1.6 -3.7,3.7 v 1.4 c 0,2 1.6,3.7 3.7,3.7 h 126.9 c 2,0 3.7,-1.6 3.7,-3.7 v -1.4 c 0,-2 -1.6,-3.7 -3.7,-3.7 z"
   class="st27" />
				<path
   id="path653"
   d="m 2157.8,627.8 h -125.5 c -2.4,0 -4.4,2 -4.4,4.4 0,2.4 2,4.4 4.4,4.4 h 125.5 c 2.4,0 4.4,-2 4.4,-4.4 0,-2.4 -2,-4.4 -4.4,-4.4 z"
   class="st12" />
				<path
   id="path655"
   d="m 2332.5,627.8 h -126.9 c -2,0 -3.7,1.6 -3.7,3.7 v 1.4 c 0,2 1.6,3.7 3.7,3.7 h 126.9 c 2,0 3.7,-1.6 3.7,-3.7 v -1.4 c 0,-2.1 -1.6,-3.7 -3.7,-3.7 z"
   class="st24" />
				<path
   id="path657"
   d="m 2157.8,656.8 h -125.5 c -2.4,0 -4.4,2 -4.4,4.4 0,2.4 2,4.4 4.4,4.4 h 125.5 c 2.4,0 4.4,-2 4.4,-4.4 0,-2.4 -2,-4.4 -4.4,-4.4 z"
   class="st12" />
				<path
   id="path659"
   d="m 2332.5,656.8 h -126.9 c -2,0 -3.7,1.6 -3.7,3.7 v 1.4 c 0,2 1.6,3.7 3.7,3.7 h 126.9 c 2,0 3.7,-1.6 3.7,-3.7 v -1.4 c 0,-2.1 -1.6,-3.7 -3.7,-3.7 z"
   class="st24" />
				<path
   id="path661"
   d="m 2157.8,685.8 h -125.5 c -2.4,0 -4.4,2 -4.4,4.4 0,2.4 2,4.4 4.4,4.4 h 125.5 c 2.4,0 4.4,-2 4.4,-4.4 0,-2.4 -2,-4.4 -4.4,-4.4 z"
   class="st12" />
				<path
   id="path663"
   d="m 2332.5,685.8 h -126.9 c -2,0 -3.7,1.6 -3.7,3.7 v 1.4 c 0,2 1.6,3.7 3.7,3.7 h 126.9 c 2,0 3.7,-1.6 3.7,-3.7 v -1.4 c 0,-2.1 -1.6,-3.7 -3.7,-3.7 z"
   class="st24" />
			</g>
		</g>
		<g
   id="g697">
			<path
   id="path669"
   d="M 974.7,677.3 H 601.6 c -5.7,0 -10.3,4.6 -10.3,10.3 V 930 c 0,5.7 4.6,10.3 10.3,10.3 h 373.2 c 5.7,0 10.3,-4.6 10.3,-10.3 V 687.6 c -0.1,-5.7 -4.7,-10.3 -10.4,-10.3 z"
   class="st2" />
			<path
   id="path671"
   d="M 964.3,721.7 H 611.9 c -4.2,0 -7.6,3.4 -7.6,7.6 v 190.4 c 0,4.2 3.4,7.6 7.6,7.6 h 352.4 c 4.2,0 7.6,-3.4 7.6,-7.6 V 729.2 c 0,-4.1 -3.4,-7.5 -7.6,-7.5 z"
   class="st29" />
			<g
   id="g679">
				<circle
   id="circle673"
   r="7.6999998"
   cy="702.20001"
   cx="888.5"
   class="st12" />
				<circle
   id="circle675"
   r="7.6999998"
   cy="702.20001"
   cx="916.79999"
   class="st27" />
				<circle
   id="circle677"
   r="7.6999998"
   cy="702.20001"
   cx="945.09998"
   class="st24" />
			</g>
			<path
   id="path681"
   d="M 763.9,834.6 H 638.4 c -2.4,0 -4.4,2 -4.4,4.4 0,2.4 2,4.4 4.4,4.4 h 125.5 c 2.4,0 4.4,-2 4.4,-4.4 -0.1,-2.5 -2,-4.4 -4.4,-4.4 z"
   class="st12" />
			<path
   id="path683"
   d="M 938.6,834.6 H 811.7 c -2,0 -3.7,1.6 -3.7,3.7 v 1.4 c 0,2 1.6,3.7 3.7,3.7 h 126.9 c 2,0 3.7,-1.6 3.7,-3.7 v -1.4 c 0,-2.1 -1.7,-3.7 -3.7,-3.7 z"
   class="st24" />
			<path
   id="path685"
   d="M 763.9,863.6 H 638.4 c -2.4,0 -4.4,2 -4.4,4.4 0,2.4 2,4.4 4.4,4.4 h 125.5 c 2.4,0 4.4,-2 4.4,-4.4 -0.1,-2.5 -2,-4.4 -4.4,-4.4 z"
   class="st12" />
			<path
   id="path687"
   d="M 938.6,863.6 H 811.7 c -2,0 -3.7,1.6 -3.7,3.7 v 1.4 c 0,2 1.6,3.7 3.7,3.7 h 126.9 c 2,0 3.7,-1.6 3.7,-3.7 v -1.4 c 0,-2.1 -1.7,-3.7 -3.7,-3.7 z"
   class="st24" />
			<path
   id="path689"
   d="M 763.9,892.6 H 638.4 c -2.4,0 -4.4,2 -4.4,4.4 0,2.4 2,4.4 4.4,4.4 h 125.5 c 2.4,0 4.4,-2 4.4,-4.4 -0.1,-2.5 -2,-4.4 -4.4,-4.4 z"
   class="st12" />
			<path
   id="path691"
   d="M 938.6,892.6 H 811.7 c -2,0 -3.7,1.6 -3.7,3.7 v 1.4 c 0,2 1.6,3.7 3.7,3.7 h 126.9 c 2,0 3.7,-1.6 3.7,-3.7 v -1.4 c 0,-2.1 -1.7,-3.7 -3.7,-3.7 z"
   class="st24" />
			<rect
   id="rect693"
   height="65"
   width="131.5"
   class="st24"
   y="743.79999"
   x="636.79999" />
			<rect
   id="rect695"
   height="65"
   width="131.5"
   class="st27"
   y="743.79999"
   x="808" />
		</g>
		<g
   id="g713">
			<path
   id="path699"
   d="m 2429.4,974.3 h -100.9 c -3.2,0 -5.8,2.6 -5.8,5.8 v 194.6 c 0,3.2 2.6,5.8 5.8,5.8 h 100.9 c 3.2,0 5.8,-2.6 5.8,-5.8 V 980 c -0.1,-3.1 -2.6,-5.7 -5.8,-5.7 z"
   class="st2" />
			<path
   id="path701"
   d="m 2426.6,994.3 h -95.3 c -0.9,0 -1.6,0.7 -1.6,1.6 v 156.7 c 0,0.9 0.7,1.6 1.6,1.6 h 95.3 c 0.9,0 1.6,-0.7 1.6,-1.6 V 995.9 c 0,-0.9 -0.7,-1.6 -1.6,-1.6 z"
   class="st29" />
			<path
   id="path703"
   d="m 2389.8,984.1 h -21.7 c -1,0 -1.7,0.7 -1.7,1.6 0,0.9 0.8,1.6 1.7,1.6 h 21.7 c 1,0 1.7,-0.7 1.7,-1.6 0,-0.9 -0.7,-1.6 -1.7,-1.6 z"
   class="st30" />
			<circle
   id="circle705"
   r="6.0999999"
   cy="1168.1"
   cx="2378.8999"
   class="st0" />
			<path
   id="path707"
   d="m 2426.3,994.3 h -94.7 c -1.1,0 -1.9,0.9 -1.9,1.9 v 18.9 h 98.6 v -18.9 c -0.1,-1 -0.9,-1.9 -2,-1.9 z"
   class="st27" />
			<rect
   id="rect709"
   height="47.799999"
   width="68.199997"
   class="st12"
   y="1030"
   x="2345.3" />
			<rect
   id="rect711"
   height="47.799999"
   width="68.199997"
   class="st24"
   y="1089.1"
   x="2345.3" />
		</g>
		<g
   id="g737">
			<path
   id="path715"
   d="M 655.2,1113.6 H 554.3 c -3.2,0 -5.8,2.6 -5.8,5.8 V 1314 c 0,3.2 2.6,5.8 5.8,5.8 h 100.9 c 3.2,0 5.8,-2.6 5.8,-5.8 v -194.6 c 0,-3.2 -2.6,-5.8 -5.8,-5.8 z"
   class="st2" />
			<path
   id="path717"
   d="m 652.4,1133.6 h -95.3 c -0.9,0 -1.6,0.7 -1.6,1.6 v 156.7 c 0,0.9 0.7,1.6 1.6,1.6 h 95.3 c 0.9,0 1.6,-0.7 1.6,-1.6 v -156.7 c 0.1,-0.9 -0.7,-1.6 -1.6,-1.6 z"
   class="st29" />
			<path
   id="path719"
   d="m 615.6,1123.4 h -21.7 c -1,0 -1.7,0.7 -1.7,1.6 0,0.9 0.8,1.6 1.7,1.6 h 21.7 c 1,0 1.7,-0.7 1.7,-1.6 0,-0.9 -0.7,-1.6 -1.7,-1.6 z"
   class="st30" />
			<circle
   id="circle721"
   r="6.0999999"
   cy="1307.4"
   cx="604.79999"
   class="st0" />
			<path
   id="path723"
   d="m 652.1,1133.6 h -94.7 c -1.1,0 -1.9,0.7 -1.9,1.5 v 14.9 h 98.6 v -14.9 c 0,-0.8 -0.9,-1.5 -2,-1.5 z"
   class="st27" />
			<rect
   id="rect725"
   height="36.900002"
   width="36.900002"
   class="st24"
   y="1158.6"
   x="563.70001" />
			<rect
   id="rect727"
   height="36.900002"
   width="36.900002"
   class="st12"
   y="1158.6"
   x="609" />
			<rect
   id="rect729"
   height="36.900002"
   width="36.900002"
   class="st31"
   y="1203.2"
   x="563.70001" />
			<rect
   id="rect731"
   height="36.900002"
   width="36.900002"
   class="st32"
   y="1203.2"
   x="609" />
			<rect
   id="rect733"
   height="36.900002"
   width="36.900002"
   class="st12"
   y="1247.8"
   x="563.70001" />
			<rect
   id="rect735"
   height="36.900002"
   width="36.900002"
   class="st31"
   y="1247.8"
   x="609" />
		</g>
	</g>
	<g
   id="g767">
		<path
   id="path741"
   d="m 1912.7,1329.3 h -12 c -4.4,0 -8,3.6 -8,8 0,4.4 3.6,8 8,8 h 12 c 4.4,0 8,-3.6 8,-8 0,-4.4 -3.6,-8 -8,-8 z"
   class="st33" />
		<path
   id="path743"
   d="m 1977.3,1329.3 h -21 c -4.4,0 -8,3.6 -8,8 0,4.4 3.6,8 8,8 h 21 c 4.4,0 8,-3.6 8,-8 0,-4.4 -3.6,-8 -8,-8 z"
   class="st33" />
		<path
   id="path745"
   d="m 2041.9,1329.3 h -21 c -4.4,0 -8,3.6 -8,8 0,4.4 3.6,8 8,8 h 21 c 4.4,0 8,-3.6 8,-8 0,-4.4 -3.6,-8 -8,-8 z"
   class="st33" />
		<path
   id="path747"
   d="m 2106.5,1329.3 h -21 c -4.4,0 -8,3.6 -8,8 0,4.4 3.6,8 8,8 h 21 c 4.4,0 8,-3.6 8,-8 0,-4.4 -3.6,-8 -8,-8 z"
   class="st33" />
		<path
   id="path749"
   d="m 2162.2,1317.3 c -4.4,0 -8,3.6 -8,8 v 4 h -4 c -4.4,0 -8,3.6 -8,8 0,4.4 3.6,8 8,8 h 12 c 4.4,0 8,-3.6 8,-8 v -12 c 0,-4.4 -3.6,-8 -8,-8 z"
   class="st33" />
		<path
   id="path751"
   d="m 2162.2,1174.1 c -4.4,0 -8,3.6 -8,8 v 23.2 c 0,4.4 3.6,8 8,8 4.4,0 8,-3.6 8,-8 v -23.2 c 0,-4.4 -3.6,-8 -8,-8 z"
   class="st33" />
		<path
   id="path753"
   d="m 2162.2,1245.7 c -4.4,0 -8,3.6 -8,8 v 23.2 c 0,4.4 3.6,8 8,8 4.4,0 8,-3.6 8,-8 v -23.2 c 0,-4.4 -3.6,-8 -8,-8 z"
   class="st33" />
		<path
   id="path755"
   d="m 2162.2,1102.5 c -4.4,0 -8,3.6 -8,8 v 23.2 c 0,4.4 3.6,8 8,8 4.4,0 8,-3.6 8,-8 v -23.2 c 0,-4.4 -3.6,-8 -8,-8 z"
   class="st33" />
		<path
   id="path757"
   d="m 2162.2,1030.9 c -4.4,0 -8,3.6 -8,8 v 23.2 c 0,4.4 3.6,8 8,8 4.4,0 8,-3.6 8,-8 v -23.2 c 0,-4.4 -3.6,-8 -8,-8 z"
   class="st33" />
		<path
   id="path759"
   d="m 2162.2,959.3 c -4.4,0 -8,3.6 -8,8 v 23.2 c 0,4.4 3.6,8 8,8 4.4,0 8,-3.6 8,-8 v -23.2 c 0,-4.4 -3.6,-8 -8,-8 z"
   class="st33" />
		<path
   id="path761"
   d="m 2162.2,816.1 c -4.4,0 -8,3.6 -8,8 v 23.2 c 0,4.4 3.6,8 8,8 4.4,0 8,-3.6 8,-8 v -23.2 c 0,-4.4 -3.6,-8 -8,-8 z"
   class="st33" />
		<path
   id="path763"
   d="m 2162.2,887.7 c -4.4,0 -8,3.6 -8,8 v 23.2 c 0,4.4 3.6,8 8,8 4.4,0 8,-3.6 8,-8 v -23.2 c 0,-4.4 -3.6,-8 -8,-8 z"
   class="st33" />
		<path
   id="path765"
   d="m 2162.2,755.7 c -4.4,0 -8,3.6 -8,8 v 12 c 0,4.4 3.6,8 8,8 4.4,0 8,-3.6 8,-8 v -12 c 0,-4.4 -3.6,-8 -8,-8 z"
   class="st33" />
	</g>
	<path
   id="path769"
   d="m 2213.6,1433.6 h -24 c -4.4,0 -8,3.6 -8,8 0,4.4 3.6,8 8,8 h 24 c 4.4,0 8,-3.6 8,-8 0,-4.4 -3.6,-8 -8,-8 z"
   class="st33" />
	<path
   id="path771"
   d="m 2139.6,1433.6 h -24 c -4.4,0 -8,3.6 -8,8 0,4.4 3.6,8 8,8 h 24 c 4.4,0 8,-3.6 8,-8 0,-4.4 -3.6,-8 -8,-8 z"
   class="st33" />
	<path
   id="path773"
   d="m 2065.6,1433.6 h -24 c -4.4,0 -8,3.6 -8,8 0,4.4 3.6,8 8,8 h 24 c 4.4,0 8,-3.6 8,-8 0,-4.4 -3.6,-8 -8,-8 z"
   class="st33" />
	<path
   id="path775"
   d="m 2361.6,1433.6 h -24 c -4.4,0 -8,3.6 -8,8 0,4.4 3.6,8 8,8 h 24 c 4.4,0 8,-3.6 8,-8 0,-4.4 -3.6,-8 -8,-8 z"
   class="st33" />
	<path
   id="path777"
   d="m 2378.9,1377 c -4.4,0 -8,3.6 -8,8 v 24 c 0,4.4 3.6,8 8,8 4.4,0 8,-3.6 8,-8 v -24 c 0,-4.4 -3.5,-8 -8,-8 z"
   class="st33" />
	<path
   id="path779"
   d="m 2287.6,1433.6 h -24 c -4.4,0 -8,3.6 -8,8 0,4.4 3.6,8 8,8 h 24 c 4.4,0 8,-3.6 8,-8 0,-4.4 -3.6,-8 -8,-8 z"
   class="st33" />
	<path
   id="path781"
   d="m 2378.9,1303 c -4.4,0 -8,3.6 -8,8 v 24 c 0,4.4 3.6,8 8,8 4.4,0 8,-3.6 8,-8 v -24 c 0,-4.4 -3.5,-8 -8,-8 z"
   class="st33" />
	<path
   id="path783"
   d="m 2378.9,1229 c -4.4,0 -8,3.6 -8,8 v 24 c 0,4.4 3.6,8 8,8 4.4,0 8,-3.6 8,-8 v -24 c 0,-4.4 -3.5,-8 -8,-8 z"
   class="st33" />
	<path
   id="path785"
   d="m 685.4,1433.6 h -24 c -4.4,0 -8,3.6 -8,8 0,4.4 3.6,8 8,8 h 24 c 4.4,0 8,-3.6 8,-8 0,-4.4 -3.5,-8 -8,-8 z"
   class="st33" />
	<path
   id="path787"
   d="m 611.4,1433.6 h -2.9 v -5.1 c 0,-4.4 -3.6,-8 -8,-8 -4.4,0 -8,3.6 -8,8 v 13.1 c 0,4.4 3.6,8 8,8 h 10.9 c 4.4,0 8,-3.6 8,-8 0,-4.4 -3.5,-8 -8,-8 z"
   class="st33" />
	<path
   id="path789"
   d="m 600.5,1386.5 c 4.4,0 8,-3.6 8,-8 v -16.1 c 0,-4.4 -3.6,-8 -8,-8 -4.4,0 -8,3.6 -8,8 v 16.1 c 0,4.5 3.6,8 8,8 z"
   class="st33" />
	<path
   id="path791"
   d="m 981.4,1433.6 h -24 c -4.4,0 -8,3.6 -8,8 0,4.4 3.6,8 8,8 h 24 c 4.4,0 8,-3.6 8,-8 0,-4.4 -3.5,-8 -8,-8 z"
   class="st33" />
	<path
   id="path793"
   d="m 907.4,1433.6 h -24 c -4.4,0 -8,3.6 -8,8 0,4.4 3.6,8 8,8 h 24 c 4.4,0 8,-3.6 8,-8 0,-4.4 -3.5,-8 -8,-8 z"
   class="st33" />
	<path
   id="path795"
   d="m 833.4,1433.6 h -24 c -4.4,0 -8,3.6 -8,8 0,4.4 3.6,8 8,8 h 24 c 4.4,0 8,-3.6 8,-8 0,-4.4 -3.5,-8 -8,-8 z"
   class="st33" />
	<path
   id="path797"
   d="m 759.4,1433.6 h -24 c -4.4,0 -8,3.6 -8,8 0,4.4 3.6,8 8,8 h 24 c 4.4,0 8,-3.6 8,-8 0,-4.4 -3.5,-8 -8,-8 z"
   class="st33" />
	<path
   id="path799"
   d="m 791,1112.2 c 4.4,0 8,-3.6 8,-8 v -24 c 0,-4.4 -3.6,-8 -8,-8 -4.4,0 -8,3.6 -8,8 v 24 c 0,4.4 3.6,8 8,8 z"
   class="st33" />
	<path
   id="path801"
   d="m 791,1186.2 c 4.4,0 8,-3.6 8,-8 v -24 c 0,-4.4 -3.6,-8 -8,-8 -4.4,0 -8,3.6 -8,8 v 24 c 0,4.4 3.6,8 8,8 z"
   class="st33" />
	<path
   id="path803"
   d="m 791,1038.2 c 4.4,0 8,-3.6 8,-8 v -24 c 0,-4.4 -3.6,-8 -8,-8 -4.4,0 -8,3.6 -8,8 v 24 c 0,4.4 3.6,8 8,8 z"
   class="st33" />
	<path
   id="path805"
   d="m 809.8,1299.4 h -11.3 c -1.1,-3 -4.1,-5.2 -7.5,-5.2 -4.4,0 -8,3.6 -8,8 v 5.2 c 0,4.4 3.6,8 8,8 h 18.8 c 4.4,0 8,-3.6 8,-8 0,-4.4 -3.6,-8 -8,-8 z"
   class="st33" />
	<path
   id="path807"
   d="m 1031.8,1299.4 h -24 c -4.4,0 -8,3.6 -8,8 0,4.4 3.6,8 8,8 h 24 c 4.4,0 8,-3.6 8,-8 0,-4.4 -3.6,-8 -8,-8 z"
   class="st33" />
	<path
   id="path809"
   d="m 957.8,1299.4 h -24 c -4.4,0 -8,3.6 -8,8 0,4.4 3.6,8 8,8 h 24 c 4.4,0 8,-3.6 8,-8 0,-4.4 -3.6,-8 -8,-8 z"
   class="st33" />
	<path
   id="path811"
   d="m 791,1260.2 c 4.4,0 8,-3.6 8,-8 v -24 c 0,-4.4 -3.6,-8 -8,-8 -4.4,0 -8,3.6 -8,8 v 24 c 0,4.4 3.6,8 8,8 z"
   class="st33" />
	<path
   id="path813"
   d="m 883.8,1299.4 h -24 c -4.4,0 -8,3.6 -8,8 0,4.4 3.6,8 8,8 h 24 c 4.4,0 8,-3.6 8,-8 0,-4.4 -3.6,-8 -8,-8 z"
   class="st33" />
</g>
</svg>
